<svg width="80" height="80" viewBox="0 0 80 80" fill="none" xmlns="http://www.w3.org/2000/svg">
<g clip-path="url(#clip0_61_199)">
<path d="M70.0833 10.4021L67.2033 59.042C67.0433 61.282 65.7633 63.202 63.8433 64.322L56.9633 17.6021C56.3233 12.9621 52.1633 9.44209 47.3633 9.44209C46.8833 9.44209 46.4033 9.44209 45.9233 9.60209L32.3233 11.6821L32.9633 10.7221V10.5621L31.5233 7.68209C31.5233 7.52209 31.3633 7.52209 31.2033 7.68209L29.4433 10.4021V10.5621L30.0833 12.1621L25.6033 12.4821L25.9233 7.84209C26.0833 4.32209 29.1233 1.60208 32.8033 1.76208L64.0033 3.52209C67.5233 3.84209 70.2433 6.88209 70.0833 10.4021Z" fill="#A286F2"/>
<path d="M60.9571 66.0821L53.7571 17.922C53.2771 14.402 49.9171 12.002 46.3971 12.482L15.5172 17.282C11.9972 17.762 9.59717 21.122 10.0772 24.642L17.2772 72.8021C17.7572 76.3221 21.1172 78.7221 24.6372 78.2421L55.5171 73.6021C59.0371 72.9621 61.4371 69.6021 60.9571 66.0821ZM16.1572 28.802C16.1572 28.962 15.9972 28.962 15.8372 28.802L13.9172 26.242V26.082L15.0372 23.042C15.0372 22.882 15.1972 22.882 15.3572 23.042L17.2772 25.602V25.762L16.1572 28.802ZM41.1171 46.4018L37.2771 56.9618C37.1171 57.4418 36.4771 57.4418 36.3171 57.1218L29.5972 48.1618C29.4372 48.0018 29.4372 47.8418 29.4372 47.6818L33.2772 37.1218C33.4371 36.6418 34.0771 36.6418 34.2371 36.9618L40.9571 45.9218C41.2771 46.0818 41.2771 46.2418 41.1171 46.4018ZM55.0371 68.9618C55.0371 69.1218 54.8771 69.1218 54.7171 68.9618L52.7971 66.4021V66.2421L53.9171 63.2018C53.9171 63.0418 54.0771 63.0418 54.2371 63.2018L56.1571 65.7618V65.9218L55.0371 68.9618Z" fill="white" fill-opacity="0.8"/>
</g>
<defs>
<clipPath id="clip0_61_199">
<rect width="80" height="80" fill="white"/>
</clipPath>
</defs>
</svg>
