<svg width="143" height="309" viewBox="0 0 143 309" fill="none" xmlns="http://www.w3.org/2000/svg">
<g clip-path="url(#clip0_68_4932)">
<path fill-rule="evenodd" clip-rule="evenodd" d="M485.83 -446.388C488.94 -446.861 492.06 -445.603 493.964 -443.096C494.822 -441.961 495.392 -440.611 495.606 -439.198L496.613 -432.51C498.206 -431.94 499.63 -430.919 500.68 -429.54C501.641 -428.269 502.237 -426.762 502.412 -425.165L503.066 -419.116C504.764 -418.544 506.278 -417.473 507.402 -415.995L507.398 -416C508.466 -414.59 509.097 -412.913 509.22 -411.141L509.594 -405.691C511.379 -405.109 512.972 -403.992 514.136 -402.46L514.141 -402.462C515.313 -400.914 515.968 -399.065 516.031 -397.112L516.182 -392.277C518.031 -391.682 519.665 -390.531 520.877 -388.935C522.164 -387.239 522.84 -385.218 522.833 -383.085L522.819 -378.843C524.714 -378.223 526.392 -377.042 527.631 -375.411C529.006 -373.598 529.722 -371.345 529.641 -369.062L529.51 -365.406C531.434 -364.759 533.14 -363.549 534.39 -361.9C535.877 -359.943 536.607 -357.507 536.445 -355.042L536.24 -351.958C538.175 -351.28 539.894 -350.045 541.156 -348.385C542.758 -346.276 543.497 -343.661 543.246 -341.018L543.007 -338.511C544.947 -337.808 546.642 -336.564 547.924 -334.879L547.921 -334.885C549.64 -332.622 550.397 -329.821 550.05 -326.998L549.812 -325.051C551.738 -324.315 553.423 -323.058 554.702 -321.379C556.534 -318.964 557.296 -315.979 556.854 -312.978L556.647 -311.584C558.55 -310.813 560.216 -309.545 561.482 -307.882C563.405 -305.348 564.201 -302.096 563.66 -298.96L563.512 -298.106C565.381 -297.305 567.022 -296.032 568.268 -294.389C570.311 -291.699 571.108 -288.254 570.46 -284.943L570.396 -284.614C572.226 -283.785 573.835 -282.51 575.062 -280.894L575.058 -280.89C577.18 -278.101 577.991 -274.545 577.304 -271.112C579.082 -270.258 580.649 -268.988 581.853 -267.403C583.984 -264.596 584.827 -261.066 584.211 -257.621C585.944 -256.75 587.453 -255.5 588.652 -253.919C590.795 -251.091 591.671 -247.581 591.123 -244.119C592.807 -243.229 594.277 -241.984 595.451 -240.434L595.453 -240.442C597.616 -237.592 598.518 -234.094 598.033 -230.62C599.673 -229.716 601.106 -228.478 602.26 -226.956L602.255 -226.953C604.4 -224.134 605.34 -220.585 604.934 -217.115C606.531 -216.195 607.93 -214.965 609.064 -213.475L609.068 -213.478C611.22 -210.638 612.191 -207.098 611.843 -203.61C613.398 -202.681 614.763 -201.461 615.872 -199.997C618.046 -197.138 619.04 -193.61 618.744 -190.11C620.26 -189.171 621.594 -187.96 622.685 -186.522L622.691 -186.525C624.875 -183.645 625.898 -180.116 625.652 -176.601C627.127 -175.656 628.429 -174.457 629.498 -173.047C631.701 -170.147 632.751 -166.625 632.557 -163.099C633.996 -162.148 635.269 -160.959 636.324 -159.573L636.32 -159.578C639.545 -155.326 640.356 -149.806 638.489 -144.808L473.336 297.665C471.889 301.54 469.021 304.631 465.254 306.358C461.488 308.087 457.282 308.247 453.406 306.809L11.0416 142.909C8.28377 141.886 5.89032 140.111 4.1165 137.781C0.890101 133.536 0.0773232 128.012 1.94363 123.015L167.097 -319.46C167.93 -321.692 169.235 -323.661 170.911 -325.261C171.677 -326.698 172.663 -327.989 173.832 -329.098C174.603 -330.553 175.598 -331.84 176.757 -332.93C177.51 -334.377 178.498 -335.676 179.681 -336.78C180.424 -338.224 181.408 -339.518 182.591 -340.615C183.335 -342.075 184.324 -343.361 185.491 -344.436C186.223 -345.905 187.218 -347.22 188.431 -348.322C189.143 -349.762 190.118 -351.052 191.312 -352.132C192.022 -353.601 193.011 -354.912 194.234 -356.004C194.932 -357.458 195.912 -358.758 197.129 -359.839C197.83 -361.328 198.824 -362.632 200.026 -363.689C200.714 -365.183 201.709 -366.488 202.915 -367.542C203.581 -369.018 204.562 -370.336 205.812 -371.414C206.477 -372.91 207.468 -374.217 208.682 -375.258C209.32 -376.743 210.298 -378.07 211.568 -379.144C212.163 -380.552 213.075 -381.819 214.26 -382.857C214.323 -382.913 214.386 -382.967 214.448 -383.019C215.078 -384.531 216.067 -385.854 217.306 -386.883C217.921 -388.406 218.911 -389.738 220.163 -390.765C220.762 -392.293 221.751 -393.633 223.011 -394.656C223.594 -396.186 224.581 -397.53 225.849 -398.546C226.413 -400.079 227.395 -401.43 228.67 -402.44C229.7 -405.335 232.25 -407.592 235.492 -408.088L485.83 -446.388ZM230.637 -403.623C231.746 -405.307 233.537 -406.535 235.683 -406.864L486.009 -445.157C488.674 -445.565 491.343 -444.486 492.97 -442.341C493.705 -441.373 494.193 -440.221 494.372 -439.009L495.298 -432.87C494.444 -433.036 493.561 -433.075 492.677 -432.978L233.198 -404.303C232.291 -404.204 231.432 -403.971 230.637 -403.623ZM495.495 -431.568C494.635 -431.78 493.727 -431.845 492.806 -431.743L233.332 -403.08C231.987 -402.931 230.763 -402.437 229.734 -401.7C229.598 -401.248 229.504 -400.782 229.456 -400.304C229.923 -400.414 230.405 -400.489 230.9 -400.524L497.327 -419.407L495.495 -431.568ZM496.827 -431.099C497.933 -430.588 498.916 -429.806 499.69 -428.788C500.518 -427.699 501.033 -426.399 501.184 -425.027L501.788 -419.443C501.051 -419.577 500.29 -419.618 499.521 -419.564L498.575 -419.496L496.827 -431.099ZM498.76 -418.271L499.603 -418.33C500.394 -418.386 501.177 -418.323 501.928 -418.152L503.237 -406.044L500.614 -405.956L498.76 -418.271ZM500.799 -404.728L503.37 -404.814L504.674 -392.747L502.604 -392.748L500.799 -404.728ZM501.346 -392.75L499.546 -404.684L229.947 -395.548L230.337 -392.957L501.346 -392.75ZM502.791 -391.511L504.807 -391.509L506.075 -379.796L504.548 -379.847L502.791 -391.511ZM503.284 -379.888L501.531 -391.511L230.524 -391.716L230.941 -388.945L503.284 -379.888ZM504.735 -378.601L506.208 -378.552L507.44 -367.159L506.451 -367.222L504.735 -378.601ZM505.179 -367.303L503.471 -378.642L231.13 -387.699L231.572 -384.759L505.179 -367.303ZM506.639 -365.969L507.574 -365.909L508.774 -354.815L508.313 -354.856L506.639 -365.969ZM507.038 -354.975L505.368 -366.05L231.761 -383.508L232.227 -380.419L507.038 -354.975ZM508.502 -353.596L508.91 -353.558L509.93 -344.122L508.502 -353.596ZM508.86 -342.884L507.227 -353.715L232.417 -379.155L232.903 -375.927L508.86 -342.884ZM510.649 -331.019L509.051 -341.617L233.093 -374.663L233.6 -371.297L510.649 -331.019ZM512.404 -319.365L510.84 -329.744L233.795 -370.015L234.318 -366.546L512.404 -319.365ZM513.118 -314.63L512.6 -318.072L234.512 -365.25L235.053 -361.666L513.841 -307.952L513.118 -314.63ZM518.487 -279.009L518.075 -281.737L518.345 -277.801L518.599 -275.458L518.487 -279.009ZM519.735 -279.045L520.467 -274.19L521.228 -273.996L521.258 -283.33L519.588 -283.724L519.735 -279.045ZM517.329 -295.016L518.156 -289.518L517.989 -294.874L517.329 -295.016ZM517.033 -296.984L517.131 -296.327L517.948 -296.153L517.64 -305.956L516.401 -306.194L517.033 -296.984ZM514.337 -314.875L514.756 -312.086L514.368 -317.772L514.017 -317.831L514.337 -314.875ZM520.667 -272.862L521.211 -269.246L521.222 -272.72L520.667 -272.862ZM520.792 -263.711L520.064 -268.541L520.212 -263.869L520.792 -263.711ZM521.184 -261.111L520.994 -262.37L520.251 -262.573L520.357 -259.181L520.978 -253.449L521.159 -253.396L521.184 -261.111ZM522.429 -261.168L522.43 -261.976L524.54 -261.399L524.221 -252.503L523.711 -252.651L522.429 -261.168ZM523.914 -251.3L524.175 -251.224L524.128 -249.891L523.914 -251.3ZM523.887 -243.18L522.605 -251.682L522.396 -251.743L522.368 -242.991L523.864 -242.529L523.887 -243.18ZM525.131 -243.23L525.304 -242.084L527.647 -241.36L528.224 -250.042L525.405 -250.865L525.131 -243.23ZM525.509 -240.718L526.877 -231.635L527 -231.595L527.562 -240.083L525.509 -240.718ZM525.561 -232.063L524.89 -236.521L524.739 -232.33L525.561 -232.063ZM526.581 -225.303L525.77 -230.69L524.694 -231.04L524.394 -222.683L526.361 -222.011L526.581 -225.303ZM527.827 -225.341L528.434 -221.305L530.533 -220.589L531.324 -228.883L528.131 -229.922L527.827 -225.341ZM528.641 -219.924L529.761 -212.488L530.412 -219.32L528.641 -219.924ZM528.652 -211.556L527.444 -219.581L526.949 -212.162L528.652 -211.556ZM529.278 -207.406L528.862 -210.167L526.865 -210.878L526.376 -203.521L526.449 -202.845L528.762 -201.988L529.278 -207.406ZM530.522 -207.439L530.72 -209.505L534.262 -208.244L533.289 -200.31L531.497 -200.975L530.522 -207.439ZM530.173 -201.465L530.038 -202.357L529.961 -201.543L530.173 -201.465ZM531.709 -199.571L533.135 -199.042L532.531 -194.111L531.709 -199.571ZM531.971 -189.537L530.385 -200.061L529.839 -200.263L528.382 -184.963L528.74 -181.653C529.866 -182.375 530.77 -183.389 531.364 -184.571L531.971 -189.537ZM533.219 -189.537L533.28 -189.139C533.543 -187.403 533.264 -185.709 532.57 -184.227L530.389 -166.408L530.438 -165.949C530.605 -164.405 530.362 -162.91 529.796 -161.571L527.553 -143.249L527.586 -142.752C527.679 -141.406 527.472 -140.106 527.023 -138.918L524.721 -120.12L524.737 -119.571C524.775 -118.421 524.601 -117.311 524.25 -116.279L521.88 -96.9262L521.878 -96.3762C521.877 -95.4318 521.738 -94.5189 521.481 -93.6556L519.059 -73.883L519.036 -73.1982C519.007 -72.4391 518.895 -71.7023 518.707 -70.9967L516.216 -50.6621L516.173 -50.0078C516.137 -49.4669 516.06 -48.9384 515.943 -48.4254L513.679 -29.9338L538.434 -197.079L534.329 -198.6L533.219 -189.537ZM531.045 -181.976C530.425 -181.313 529.697 -180.746 528.886 -180.302L529.803 -171.826L531.045 -181.976ZM526.615 -179.453L525.719 -170.044L525.092 -179.202L526.065 -179.35C526.25 -179.379 526.433 -179.413 526.615 -179.453ZM523.5 -178.958L523.076 -172.555L522.878 -178.863L523.5 -178.958ZM522.867 -180.113L523.585 -180.223L523.68 -181.66L523.184 -188.924L522.867 -180.113ZM520.911 -178.562L520.843 -158.344L520.805 -157.242L262.989 -128.755C260.306 -128.46 257.74 -129.563 256.106 -131.711L256.111 -131.714C255.282 -132.803 254.768 -134.103 254.619 -135.47L235.835 -309.191L242.044 -306.889L265.952 -148.237C266.166 -146.823 266.736 -145.473 267.592 -144.343C269.495 -141.837 272.613 -140.571 275.731 -141.054L520.911 -178.562ZM243.382 -306.395L267.186 -148.434C267.367 -147.222 267.849 -146.065 268.585 -145.098V-145.091C270.216 -142.948 272.884 -141.87 275.551 -142.273L520.915 -179.814L520.979 -199.557L520.854 -203.592L243.382 -306.395ZM241.832 -308.296L235.686 -310.574L235.237 -314.729L241.183 -312.611L241.832 -308.296ZM242.517 -312.136L243.17 -307.801L520.812 -204.934L520.555 -213.125L242.517 -312.136ZM240.973 -314.001L235.089 -316.096L234.645 -320.201L240.331 -318.261L240.973 -314.001ZM241.661 -317.808L242.307 -313.526L520.512 -214.455L520.251 -222.786L241.661 -317.808ZM240.124 -319.642L234.498 -321.56L234.061 -325.606L239.491 -323.84L240.124 -319.642ZM240.818 -323.409L241.455 -319.187L520.21 -224.11L519.944 -232.585L240.818 -323.409ZM239.282 -325.218L233.913 -326.964L233.482 -330.956L238.66 -329.355L239.282 -325.218ZM239.984 -328.947L240.611 -324.784L519.902 -233.904L519.73 -239.408L519.514 -242.571L239.984 -328.947ZM238.455 -330.716L233.338 -332.299L232.912 -336.228L237.84 -334.789L238.455 -330.716ZM239.16 -334.404L239.779 -330.308L519.422 -243.901L518.814 -252.789L239.16 -334.404ZM237.637 -336.141L232.768 -337.564L232.351 -341.419L237.035 -340.135L237.637 -336.141ZM238.351 -339.775L238.957 -335.757L518.725 -254.107L518.104 -263.161L238.351 -339.775ZM236.832 -341.482L232.207 -342.75L231.797 -346.538L236.242 -345.404L236.832 -341.482ZM237.554 -345.069L238.148 -341.122L518.014 -264.472L517.383 -273.7L237.554 -345.069ZM236.04 -346.736L231.655 -347.854L231.254 -351.571L235.461 -350.58L236.04 -346.736ZM236.769 -350.273L237.353 -346.402L517.295 -274.998L517.108 -277.72L516.378 -284.479L236.769 -350.273ZM235.264 -351.897L231.112 -352.873L230.72 -356.503L234.697 -355.651L235.264 -351.897ZM236.001 -355.371L236.571 -351.589L516.236 -285.785L515.189 -295.475L236.001 -355.371ZM234.499 -356.958L230.579 -357.8L230.196 -361.34L233.949 -360.618L234.499 -356.958ZM235.247 -360.368L235.805 -356.68L515.049 -296.775L513.979 -306.661L235.247 -360.368ZM233.753 -361.916L230.058 -362.628L229.686 -366.068L233.217 -365.469L233.753 -361.916ZM233.023 -366.765L229.547 -367.355L229.186 -370.685L232.505 -370.203L233.023 -366.765ZM232.311 -371.485L229.049 -371.958L228.699 -375.19L231.809 -374.817L232.311 -371.485ZM231.619 -376.08L228.564 -376.447L228.229 -379.543L231.137 -379.273L231.619 -376.08ZM230.946 -380.537L228.093 -380.802L227.773 -383.763L230.488 -383.589L230.946 -380.537ZM230.299 -384.842L227.638 -385.011L227.334 -387.827L229.862 -387.742L230.299 -384.842ZM229.673 -388.989L227.199 -389.071L226.911 -391.718L229.263 -391.716L229.673 -388.989ZM229.076 -392.959L226.778 -392.961L226.591 -394.692C226.573 -394.849 226.562 -395.005 226.555 -395.161C227.217 -395.361 227.915 -395.48 228.636 -395.503L228.691 -395.505L229.076 -392.959ZM228.506 -396.74C227.852 -396.711 227.217 -396.616 226.606 -396.462C226.663 -396.918 226.762 -397.364 226.899 -397.794C227.314 -398.098 227.76 -398.362 228.233 -398.582C228.244 -398.488 228.256 -398.393 228.271 -398.297L228.506 -396.74ZM229.443 -399.026C229.938 -399.162 230.452 -399.252 230.982 -399.29L497.512 -418.181L499.36 -405.913L229.761 -396.783L229.504 -398.486C229.477 -398.666 229.456 -398.848 229.443 -399.026ZM228.181 -399.905C228.071 -399.862 227.963 -399.815 227.857 -399.768C227.965 -399.928 228.08 -400.085 228.201 -400.238C228.192 -400.126 228.186 -400.016 228.181 -399.905ZM525.007 -180.441L525.881 -180.574C526.174 -180.619 526.46 -180.681 526.739 -180.758L527.138 -184.937L525.901 -196.378L524.923 -181.669L525.007 -180.441ZM506.416 -415.247C505.569 -416.361 504.462 -417.21 503.216 -417.735L504.474 -406.085L506.364 -406.15C507.029 -406.173 507.688 -406.125 508.33 -406.01L507.986 -411.052C507.882 -412.584 507.339 -414.029 506.416 -415.247ZM506.4 -404.916L504.607 -404.857L505.918 -392.747L509.238 -392.743L508.418 -404.731C507.763 -404.875 507.085 -404.94 506.4 -404.916ZM509.322 -391.506L506.051 -391.508L507.323 -379.755L510.133 -379.662L509.322 -391.506ZM510.218 -378.417L507.457 -378.511L508.693 -367.078L511.003 -366.931L510.218 -378.417ZM511.09 -365.685L508.828 -365.83L510.031 -354.698L511.852 -354.529L511.09 -365.685ZM511.938 -353.278L510.167 -353.441L511.34 -342.588L512.681 -342.428L511.938 -353.278ZM512.767 -341.173L511.476 -341.327L512.622 -330.731L513.49 -330.605L512.767 -341.173ZM513.577 -329.345L512.76 -329.463L513.879 -319.115L514.281 -319.047L513.577 -329.345ZM520.956 -242.125L521.116 -240.64L521.105 -237.456L520.983 -239.243L520.893 -242.144L520.956 -242.125ZM523.207 -232.829L522.36 -240.667L522.362 -241.69L523.817 -241.241L523.511 -232.73L523.207 -232.829ZM521.154 -251.824L521.121 -252.115L521.154 -252.106V-251.824ZM523.439 -230.689L523.353 -231.476L523.466 -231.44L523.439 -230.689ZM522.323 -229.483L523.006 -223.156L522.303 -223.396L522.323 -229.483ZM526.277 -220.731L524.448 -221.355L525.381 -212.721L525.735 -212.595L526.277 -220.731ZM524.061 -213.398L524.085 -213.183L524.054 -213.194L524.061 -213.398ZM525.651 -211.31L525.529 -211.354L525.606 -210.638L525.651 -211.31ZM524.232 -211.816L525.131 -203.495L525.12 -203.337L523.72 -203.856L524.007 -211.896L524.232 -211.816ZM527.722 -191.07L526.599 -201.464L528.639 -200.707L527.722 -191.07ZM527.798 -178.829L529.139 -166.415L528.587 -161.895C528.104 -160.818 527.375 -159.865 526.467 -159.115L526.239 -162.454L527.798 -178.829ZM526.568 -157.648C527.188 -158.067 527.753 -158.562 528.246 -159.118L527.106 -149.793L526.568 -157.648ZM523.79 -149.793L524.437 -156.598C524.16 -156.505 523.874 -156.425 523.583 -156.359L523.79 -149.793ZM519.985 -134.401L520.76 -155.991L263.124 -127.524C260.056 -127.189 256.99 -128.504 255.12 -130.962C254.157 -132.229 253.558 -133.737 253.383 -135.333L234.535 -309.673L229.098 -311.687L242.046 -122.516C242.149 -120.984 242.695 -119.533 243.614 -118.321L243.611 -118.325C245.222 -116.202 247.764 -115.048 250.42 -115.238L519.041 -134.278C519.361 -134.301 519.678 -134.342 519.985 -134.401ZM229.006 -313.05L234.386 -311.056L233.938 -315.191L228.731 -317.045L229.006 -313.05ZM228.639 -318.392L233.791 -316.558L233.349 -320.642L228.37 -322.341L228.639 -318.392ZM228.278 -323.68L233.201 -322.001L232.766 -326.029L228.012 -327.575L228.278 -323.68ZM227.92 -328.915L232.62 -327.385L232.191 -331.355L227.658 -332.756L227.92 -328.915ZM227.566 -334.081L232.045 -332.696L231.622 -336.604L227.307 -337.864L227.566 -334.081ZM227.217 -339.184L231.479 -337.94L231.065 -341.771L226.963 -342.893L227.217 -339.184ZM226.874 -344.21L230.921 -343.102L230.515 -346.865L226.624 -347.858L226.874 -344.21ZM226.534 -349.16L230.371 -348.182L229.972 -351.871L226.289 -352.738L226.534 -349.16ZM226.201 -354.029L229.831 -353.175L229.443 -356.779L225.962 -357.525L226.201 -354.029ZM225.874 -358.81L229.303 -358.075L228.922 -361.587L225.64 -362.22L225.874 -358.81ZM225.552 -363.496L228.783 -362.874L228.415 -366.284L225.325 -366.809L225.552 -363.496ZM225.239 -368.085L228.276 -367.571L227.918 -370.869L225.02 -371.291L225.239 -368.085ZM224.933 -372.557L227.782 -372.144L227.435 -375.341L224.719 -375.666L224.933 -372.557ZM224.635 -376.916L227.3 -376.598L226.969 -379.66L224.43 -379.894L224.635 -376.916ZM224.345 -381.149L226.832 -380.918L226.516 -383.842L224.149 -383.993L224.345 -381.149ZM224.065 -385.239L226.381 -385.092L226.081 -387.868L223.957 -387.938C223.932 -387.938 223.907 -387.94 223.88 -387.94L224.065 -385.239ZM223.998 -389.177L225.946 -389.113L225.667 -391.696C224.971 -391.646 224.299 -391.509 223.66 -391.301C223.662 -391.166 223.667 -391.033 223.678 -390.898L223.795 -389.181C223.862 -389.181 223.93 -389.179 223.998 -389.177ZM223.75 -392.621C224.326 -392.777 224.921 -392.883 225.534 -392.93L225.358 -394.55C225.354 -394.595 225.349 -394.642 225.345 -394.687C224.89 -394.464 224.46 -394.201 224.059 -393.903C223.921 -393.489 223.817 -393.059 223.75 -392.621ZM225.074 -395.926C225.156 -395.963 225.239 -395.999 225.322 -396.034C225.327 -396.118 225.333 -396.203 225.34 -396.287C225.248 -396.168 225.16 -396.05 225.074 -395.926ZM524.568 -157.968C524.239 -157.83 523.898 -157.715 523.544 -157.623L523.473 -159.86L524.311 -172.451L524.995 -162.448L524.568 -157.968ZM509.685 -404.341C511.039 -403.802 512.242 -402.901 513.143 -401.712C514.161 -400.369 514.727 -398.763 514.781 -397.073L514.922 -392.59C514.362 -392.691 513.789 -392.741 513.204 -392.741L510.478 -392.743L509.685 -404.341ZM510.565 -391.504L513.204 -391.502C513.803 -391.502 514.391 -391.439 514.961 -391.319L515.333 -379.487L511.377 -379.62L510.565 -391.504ZM511.462 -378.376L515.373 -378.246L515.736 -366.629L512.251 -366.852L511.462 -378.376ZM512.336 -365.606L515.776 -365.386L516.128 -354.134L513.102 -354.414L512.336 -365.606ZM513.188 -353.163L516.168 -352.886L516.511 -341.967L513.933 -342.277L513.188 -353.163ZM514.019 -341.023L516.551 -340.719L516.883 -330.112L514.743 -330.423L514.019 -341.023ZM514.83 -329.163L516.923 -328.859L517.246 -318.543L515.536 -318.833L514.83 -329.163ZM515.625 -317.56L517.286 -317.277L517.601 -307.228L516.315 -307.474L515.625 -317.56ZM522.368 -200.846L522.234 -202.81L522.224 -199.724L522.272 -198.17L522.368 -200.846ZM522.292 -220.132L522.734 -213.664L522.826 -213.631L523.119 -221.808L522.297 -222.088L522.292 -220.132ZM523.612 -200.846L524.293 -190.878L525.036 -202.043L523.673 -202.548L523.612 -200.846ZM526.307 -143.277L525.514 -154.857L524.097 -139.98L524.2 -136.716C524.889 -137.441 525.439 -138.296 525.813 -139.235L526.307 -143.277ZM525.446 -136.246C525.085 -135.819 524.685 -135.426 524.252 -135.071L524.466 -128.24L525.446 -136.246ZM522.27 -133.835L521.994 -130.944L522.004 -133.718C522.053 -133.739 522.101 -133.76 522.152 -133.781C522.191 -133.799 522.231 -133.817 522.27 -133.835ZM519.94 -133.129L519.332 -116.23L519.054 -112.022C518.018 -111.49 516.854 -111.173 515.617 -111.131L237.853 -101.717C235.219 -101.629 232.701 -102.825 231.11 -104.922L231.112 -104.917C230.09 -106.259 229.524 -107.862 229.472 -109.562L223.058 -313.926L227.825 -312.158L240.811 -122.426C240.933 -120.655 241.559 -118.973 242.629 -117.565C244.49 -115.116 247.439 -113.779 250.508 -113.996L519.129 -133.036C519.404 -133.055 519.674 -133.086 519.94 -133.129ZM227.733 -313.521L223.017 -315.269L222.894 -319.124L227.46 -317.498L227.733 -313.521ZM227.368 -318.845L222.853 -320.453L222.734 -324.263L227.098 -322.774L227.368 -318.845ZM227.007 -324.114L222.691 -325.586L222.574 -329.345L226.742 -327.989L227.007 -324.114ZM226.651 -329.328L222.533 -330.668L222.416 -334.374L226.39 -333.148L226.651 -329.328ZM226.298 -334.473L222.375 -335.685L222.26 -339.337L226.041 -338.233L226.298 -334.473ZM225.951 -339.553L222.22 -340.642L222.107 -344.224L225.698 -343.24L225.951 -339.553ZM225.608 -344.557L222.065 -345.526L221.956 -349.048L225.359 -348.18L225.608 -344.557ZM225.271 -349.484L221.914 -350.339L221.806 -353.794L225.029 -353.035L225.271 -349.484ZM224.939 -354.326L221.767 -355.072L221.661 -358.447L224.701 -357.795L224.939 -354.326ZM224.615 -359.08L221.621 -359.722L221.517 -363.013L224.383 -362.461L224.615 -359.08ZM224.295 -363.739L221.477 -364.282L221.377 -367.477L224.07 -367.021L224.295 -363.739ZM223.984 -368.299L221.337 -368.747L221.24 -371.84L223.766 -371.473L223.984 -368.299ZM223.68 -372.741L221.2 -373.1L221.107 -376.1L223.47 -375.815L223.68 -372.741ZM223.383 -377.067L221.067 -377.344L220.977 -380.214L223.182 -380.009L223.383 -377.067ZM223.096 -381.264L220.938 -381.463L220.853 -384.173C221.103 -384.177 221.355 -384.171 221.609 -384.155L222.903 -384.072L223.096 -381.264ZM222.819 -385.319L221.691 -385.39C221.398 -385.408 221.105 -385.416 220.814 -385.41L220.762 -387.108C220.758 -387.221 220.756 -387.332 220.758 -387.444C221.359 -387.656 221.992 -387.805 222.643 -387.883L222.819 -385.319ZM222.558 -389.122C221.984 -389.057 221.423 -388.944 220.882 -388.785C220.956 -389.204 221.062 -389.614 221.199 -390.008C221.589 -390.305 222.006 -390.567 222.445 -390.792L222.558 -389.122ZM222.45 -392.164C222.391 -392.137 222.331 -392.112 222.272 -392.085C222.335 -392.173 222.4 -392.259 222.466 -392.344C222.461 -392.284 222.454 -392.223 222.45 -392.164ZM522.008 -135.088C522.145 -135.156 522.278 -135.229 522.409 -135.304L522.851 -139.939L522.626 -147.105L522.017 -137.947L522.008 -135.088ZM519.888 -388.183C518.926 -389.451 517.658 -390.396 516.223 -390.947L516.585 -379.446L520.046 -379.331C520.564 -379.315 521.075 -379.257 521.575 -379.162L521.589 -383.087C521.596 -384.948 521.008 -386.71 519.888 -388.183ZM520.005 -378.092L516.624 -378.205L516.989 -366.55L521.533 -366.258L521.571 -377.899C521.062 -378.009 520.537 -378.074 520.005 -378.092ZM521.528 -365.019L517.029 -365.307L517.383 -354.017L521.49 -353.637L521.528 -365.019ZM521.486 -352.395L517.421 -352.771L517.766 -341.818L521.451 -341.378L521.486 -352.395ZM521.445 -340.133L517.804 -340.568L518.138 -329.929L521.411 -329.454L521.445 -340.133ZM521.407 -328.206L518.178 -328.676L518.502 -318.329L521.371 -317.844L521.407 -328.206ZM521.368 -316.585L518.541 -317.063L518.858 -306.985L521.335 -306.508L521.368 -316.585ZM521.33 -305.244L518.899 -305.713L519.206 -295.883L521.298 -295.434L521.33 -305.244ZM521.294 -294.166L519.246 -294.605L519.548 -285.006L521.262 -284.602L521.294 -294.166ZM522.186 -161.112L522.227 -159.797L522.083 -157.617L522.085 -158.283L522.186 -161.112ZM523.159 -130.126L523.473 -120.129L523.04 -116.589C522.776 -115.836 522.402 -115.132 521.94 -114.496L521.949 -117.423L523.159 -130.126ZM521.932 -112.591C522.186 -112.839 522.423 -113.101 522.646 -113.375L521.916 -107.413L521.932 -112.591ZM517.585 -89.9228L518.96 -110.611C517.941 -110.185 516.829 -109.933 515.662 -109.892L237.896 -100.483C234.863 -100.377 231.957 -101.758 230.125 -104.173C228.947 -105.719 228.296 -107.571 228.235 -109.523L221.806 -314.388L217.624 -315.938L216.894 -96.6047C216.887 -94.7509 217.478 -92.985 218.599 -91.5123L218.595 -91.5168C220.197 -89.4064 222.634 -88.1938 225.282 -88.1925L512.192 -87.9757C514.24 -87.9748 516.121 -88.7066 517.585 -89.9228ZM217.628 -317.265L221.765 -315.731L221.645 -319.57L217.64 -320.996L217.628 -317.265ZM217.646 -322.308L221.603 -320.899L221.485 -324.689L217.656 -325.995L217.646 -322.308ZM217.662 -327.302L221.443 -326.013L221.325 -329.751L217.674 -330.939L217.662 -327.302ZM217.678 -332.247L221.283 -331.074L221.168 -334.76L217.69 -335.836L217.678 -332.247ZM217.694 -337.132L221.127 -336.071L221.013 -339.702L217.707 -340.666L217.694 -337.132ZM217.71 -341.957L220.972 -341.005L220.861 -344.566L217.721 -345.425L217.71 -341.957ZM217.726 -346.716L220.819 -345.868L220.71 -349.365L217.737 -350.124L217.726 -346.716ZM217.741 -351.404L220.67 -350.656L220.562 -354.087L217.753 -354.747L217.741 -351.404ZM217.757 -356.016L220.521 -355.365L220.416 -358.713L217.768 -359.282L217.757 -356.016ZM217.771 -360.547L220.377 -359.988L220.274 -363.254L217.782 -363.734L217.771 -360.547ZM217.788 -364.992L220.235 -364.521L220.134 -367.688L217.797 -368.085L217.788 -364.992ZM217.802 -369.348L220.095 -368.959L219.999 -372.02L217.811 -372.338L217.802 -369.348ZM217.816 -373.593L219.96 -373.28L219.866 -376.247L217.825 -376.492L217.816 -373.593ZM217.829 -377.732L219.827 -377.493L219.739 -380.329L219.267 -380.372C218.787 -380.417 218.311 -380.424 217.838 -380.397L217.829 -377.732ZM219.39 -381.607L219.699 -381.578L219.622 -384.065C219.016 -383.97 218.424 -383.813 217.854 -383.598C217.851 -383.502 217.849 -383.409 217.849 -383.314L217.842 -381.638C218.354 -381.665 218.87 -381.654 219.39 -381.607ZM218.014 -384.961C218.525 -385.119 219.05 -385.236 219.582 -385.311L219.532 -386.899C219.113 -386.673 218.714 -386.414 218.34 -386.124C218.205 -385.748 218.095 -385.36 218.014 -384.961ZM219.472 -388.253C219.487 -388.26 219.501 -388.267 219.516 -388.275C219.534 -388.282 219.552 -388.291 219.57 -388.298L219.571 -388.325L219.575 -388.352C219.577 -388.366 219.577 -388.383 219.579 -388.397C219.555 -388.366 219.532 -388.336 219.508 -388.303C219.496 -388.287 219.485 -388.271 219.472 -388.253ZM522.815 -377.531C524.319 -376.961 525.646 -375.979 526.645 -374.663C527.852 -373.077 528.472 -371.104 528.402 -369.101L528.282 -365.733C527.825 -365.827 527.361 -365.888 526.89 -365.917L522.778 -366.179L522.815 -377.531ZM522.774 -364.94L526.807 -364.683C527.293 -364.651 527.771 -364.582 528.237 -364.475L527.827 -353.051L522.736 -353.522L522.774 -364.94ZM522.731 -352.28L527.784 -351.812L527.383 -340.666L522.695 -341.228L522.731 -352.28ZM522.689 -339.984L527.339 -339.427L526.951 -328.649L522.655 -329.273L522.689 -339.984ZM522.65 -328.026L526.908 -327.408L526.534 -316.968L522.616 -317.631L522.65 -328.026ZM522.612 -316.373L526.489 -315.716L526.124 -305.584L522.578 -306.267L522.612 -316.373ZM522.574 -305.005L526.079 -304.329L525.726 -294.484L522.54 -295.167L522.574 -305.005ZM522.537 -293.898L525.682 -293.224L525.338 -283.643L522.504 -284.31L522.537 -293.898ZM522.501 -283.039L525.293 -282.381L524.957 -273.043L522.47 -273.678L522.501 -283.039ZM522.465 -272.403L524.912 -271.779L524.585 -262.672L522.434 -263.26L522.465 -272.403ZM520.708 -117.442L520.711 -118.285L520.582 -116.344L520.569 -115.98L520.708 -117.442ZM520.64 -96.9942L520.663 -103.921L519.818 -95.0529L519.732 -92.6069C519.944 -93.0263 520.123 -93.4658 520.264 -93.9217L520.64 -96.9942ZM519.843 -90.4793C519.778 -90.3967 519.714 -90.3152 519.645 -90.2348L519.577 -88.3085L519.843 -90.4793ZM517.477 -88.3028L516.428 -72.5155L516.026 -68.2786C514.368 -66.097 511.712 -64.7213 508.774 -64.8194L212.719 -74.6666C210.09 -74.7548 207.671 -76.0072 206.082 -78.0996L206.078 -78.0965C204.873 -79.683 204.249 -81.659 204.316 -83.655L212.719 -317.756L216.387 -316.396L215.655 -96.6054C215.65 -94.4725 216.324 -92.4518 217.61 -90.7605C219.445 -88.3403 222.243 -86.9521 225.28 -86.9471L512.194 -86.7334C514.141 -86.732 515.957 -87.3096 517.477 -88.3028ZM216.392 -317.723L212.765 -319.066L212.897 -322.684L216.405 -321.435L216.392 -317.723ZM216.408 -322.749L212.942 -323.982L213.071 -327.559L216.421 -326.415L216.408 -322.749ZM216.425 -327.724L213.118 -328.852L213.244 -332.38L216.437 -331.342L216.425 -327.724ZM216.441 -332.649L213.29 -333.674L213.415 -337.156L216.453 -336.217L216.441 -332.649ZM216.457 -337.513L213.461 -338.439L213.585 -341.868L216.47 -341.027L216.457 -337.513ZM216.473 -342.318L213.63 -343.149L213.751 -346.511L216.486 -345.763L216.473 -342.318ZM216.489 -347.054L213.798 -347.792L213.916 -351.098L216.5 -350.438L216.489 -347.054ZM216.506 -351.719L213.961 -352.368L214.078 -355.612L216.516 -355.038L216.506 -351.719ZM216.52 -356.307L214.123 -356.87L214.236 -360.04L216.531 -359.548L216.52 -356.307ZM216.536 -360.814L214.281 -361.297L214.393 -364.386L216.545 -363.971L216.536 -360.814ZM216.55 -365.232L214.438 -365.638L214.546 -368.637L216.559 -368.296L216.55 -365.232ZM216.565 -369.558L214.59 -369.892L214.695 -372.791L216.574 -372.518L216.565 -369.558ZM216.579 -373.773L214.776 -374.035L214.74 -374.039L214.831 -376.619C215.407 -376.677 215.993 -376.682 216.588 -376.634L216.579 -373.773ZM216.592 -377.869C216.013 -377.912 215.439 -377.908 214.876 -377.86L214.936 -379.527C214.939 -379.602 214.943 -379.676 214.947 -379.751C215.482 -379.965 216.034 -380.129 216.599 -380.239L216.592 -377.869ZM216.604 -381.499C216.108 -381.413 215.621 -381.293 215.144 -381.138C215.231 -381.523 215.344 -381.897 215.479 -382.26C215.84 -382.54 216.218 -382.794 216.61 -383.015L216.604 -381.499ZM533.401 -361.148C532.376 -362.497 531.009 -363.509 529.463 -364.102L529.064 -352.936L533.734 -352.504C534.167 -352.463 534.597 -352.397 535.019 -352.305L535.206 -355.121C535.348 -357.287 534.706 -359.424 533.401 -361.148ZM533.615 -351.271L529.019 -351.697L528.618 -340.518L534.192 -339.851L534.937 -351.05C534.503 -351.156 534.063 -351.23 533.615 -351.271ZM534.109 -338.616L528.573 -339.279L528.186 -328.469L533.385 -327.714L534.109 -338.616ZM533.304 -326.478L528.141 -327.228L527.766 -316.758L532.603 -315.938L533.304 -326.478ZM532.52 -314.692L527.722 -315.506L527.357 -305.347L531.842 -304.484L532.52 -314.692ZM531.759 -303.236L527.312 -304.092L526.958 -294.22L531.101 -293.332L531.759 -303.236ZM531.018 -292.078L526.913 -292.959L526.568 -283.354L530.378 -282.458L531.018 -292.078ZM530.296 -281.205L526.523 -282.091L526.189 -272.73L529.673 -271.842L530.296 -281.205ZM529.589 -270.585L526.142 -271.464L525.815 -262.335L528.983 -261.467L529.589 -270.585ZM528.9 -260.205L525.77 -261.062L525.45 -252.144L528.309 -251.31L528.9 -260.205ZM517.822 -74.0846L517.817 -73.9247L517.773 -73.5757L517.822 -74.0846ZM513.956 -46.5557L515.831 -66.2444C513.969 -64.523 511.457 -63.5027 508.732 -63.5929L212.679 -73.4357C209.676 -73.5369 206.912 -74.9621 205.095 -77.3553C203.717 -79.1617 203.003 -81.4215 203.088 -83.7014L211.498 -318.209L208.275 -319.401L191.749 -70.7116C191.603 -68.5489 192.249 -66.4078 193.554 -64.6851L193.551 -64.682C195.131 -62.6031 197.533 -61.314 200.144 -61.1467L505.343 -41.6734C509.033 -41.4357 512.357 -43.4627 513.956 -46.5557ZM208.362 -320.697L211.544 -319.518L211.674 -323.119L208.596 -324.216L208.362 -320.697ZM208.682 -325.5L211.719 -324.418L211.847 -327.976L208.912 -328.978L208.682 -325.5ZM208.997 -330.258L211.893 -329.269L212.019 -332.779L209.225 -333.689L208.997 -330.258ZM209.311 -334.971L212.066 -334.074L212.19 -337.535L209.536 -338.355L209.311 -334.971ZM209.62 -339.626L212.237 -338.817L212.359 -342.226L209.842 -342.962L209.62 -339.626ZM209.926 -344.229L212.404 -343.507L212.524 -346.848L210.144 -347.5L209.926 -344.229ZM210.228 -348.77L212.569 -348.128L212.688 -351.411L210.44 -351.985L210.228 -348.77ZM210.525 -353.243L212.733 -352.681L212.848 -355.901L210.735 -356.399L210.525 -353.243ZM210.818 -357.649L212.895 -357.16L213.006 -360.303L211.023 -360.729L210.818 -357.649ZM211.106 -361.977L213.051 -361.56L213.161 -364.624L211.305 -364.982L211.106 -361.977ZM211.388 -366.226L213.206 -365.875L213.314 -368.846L212.251 -369.026C212.026 -369.063 211.803 -369.096 211.58 -369.117L211.388 -366.226ZM212.467 -370.252L213.359 -370.101L213.459 -372.908C212.909 -372.926 212.364 -372.899 211.827 -372.827L211.663 -370.36C211.929 -370.335 212.197 -370.299 212.467 -370.252ZM211.909 -374.086C212.436 -374.143 212.969 -374.163 213.503 -374.147L213.584 -376.411C213.051 -376.286 212.532 -376.116 212.032 -375.903C212.028 -375.848 212.023 -375.792 212.019 -375.738L211.909 -374.086ZM212.264 -377.31C212.708 -377.462 213.165 -377.588 213.63 -377.682L213.682 -379.129C213.308 -378.908 212.947 -378.662 212.6 -378.387C212.467 -378.036 212.354 -377.676 212.264 -377.31ZM536.156 -350.665C537.731 -350.045 539.126 -349.002 540.167 -347.633C541.582 -345.774 542.235 -343.465 542.016 -341.131L541.802 -338.869C541.397 -338.965 540.984 -339.038 540.565 -339.089L535.426 -339.704L536.156 -350.665ZM535.345 -338.468L540.417 -337.86C540.847 -337.81 541.269 -337.731 541.683 -337.625L540.638 -326.658L534.618 -327.534L535.345 -338.468ZM534.536 -326.298L540.521 -325.428L539.506 -314.767L533.832 -315.729L534.536 -326.298ZM533.75 -314.483L539.387 -313.528L538.405 -303.218L533.07 -304.246L533.75 -314.483ZM532.987 -302.998L538.286 -301.977L537.335 -291.994L532.327 -293.067L532.987 -302.998ZM532.245 -291.816L537.217 -290.749L536.294 -281.065L531.603 -282.169L532.245 -291.816ZM531.52 -280.917L536.175 -279.82L535.28 -270.411L530.896 -271.529L531.52 -280.917ZM530.812 -270.274L535.161 -269.165L534.289 -260.014L530.204 -261.132L530.812 -270.274ZM530.121 -259.87L534.171 -258.761L533.32 -249.847L529.528 -250.954L530.121 -259.87ZM529.443 -249.686L533.201 -248.59L532.374 -239.9L528.866 -240.984L529.443 -249.686ZM528.781 -239.707L532.252 -238.634L531.445 -230.149L528.215 -231.199L528.781 -239.707ZM513.713 -44.0051C511.679 -41.6411 508.601 -40.2214 505.262 -40.4341L200.056 -59.9088C197.093 -60.0972 194.36 -61.5639 192.562 -63.9301C191.073 -65.8863 190.345 -68.3217 190.508 -70.7836L207.062 -319.852L204.237 -320.897L179.175 -57.7575C178.952 -55.4281 179.609 -53.1158 181.025 -51.2555L181.028 -51.251C182.596 -49.1779 184.986 -47.8522 187.579 -47.6132L501.919 -18.5141C506.713 -18.071 511.018 -21.3571 511.946 -25.9779L512.17 -27.8181L513.713 -44.0051ZM207.148 -321.147L204.359 -322.181L204.686 -325.608L207.38 -324.65L207.148 -321.147ZM207.465 -325.933L204.807 -326.879L205.131 -330.267L207.695 -329.393L207.465 -325.933ZM207.781 -330.673L205.251 -331.535L205.569 -334.877L208.008 -334.084L207.781 -330.673ZM208.092 -335.366L205.69 -336.149L206.004 -339.446L208.315 -338.733L208.092 -335.366ZM208.4 -340.004L206.125 -340.707L206.434 -343.956L208.621 -343.318L208.4 -340.004ZM208.705 -344.585L206.553 -345.213L206.857 -348.399L208.921 -347.835L208.705 -344.585ZM209.005 -349.104L206.977 -349.66L207.276 -352.792L209.218 -352.298L209.005 -349.104ZM209.3 -353.556L207.394 -354.042L207.687 -357.117L209.509 -356.687L209.3 -353.556ZM209.592 -357.937L207.806 -358.357L208.092 -361.358L209.795 -360.993L209.592 -357.937ZM209.878 -362.241L208.209 -362.599L208.479 -365.426C208.955 -365.399 209.437 -365.341 209.919 -365.248L210.075 -365.217L209.878 -362.241ZM210.158 -366.462L210.155 -366.463C209.633 -366.564 209.113 -366.629 208.596 -366.658L208.822 -369.031C209.318 -369.116 209.825 -369.162 210.34 -369.171L210.158 -366.462ZM210.422 -370.416C209.923 -370.41 209.43 -370.374 208.944 -370.306L209.101 -371.953C209.101 -371.966 209.103 -371.98 209.104 -371.994C209.106 -372.016 209.108 -372.039 209.112 -372.061C209.583 -372.269 210.068 -372.442 210.564 -372.575L210.422 -370.416ZM210.651 -373.872C210.219 -373.775 209.795 -373.65 209.378 -373.499C209.469 -373.845 209.581 -374.183 209.712 -374.512C210.039 -374.776 210.383 -375.019 210.743 -375.238L210.651 -373.872ZM546.935 -334.128C545.867 -335.534 544.474 -336.593 542.884 -337.231L541.861 -326.48L547.408 -325.675C547.817 -325.615 548.216 -325.534 548.609 -325.434L548.818 -327.144C549.124 -329.643 548.455 -332.126 546.935 -334.128ZM547.223 -324.454L541.744 -325.25L540.727 -314.56L547.144 -313.471L548.458 -324.196C548.056 -324.306 547.642 -324.392 547.223 -324.454ZM546.993 -312.237L540.608 -313.32L539.622 -302.984L545.716 -301.81L546.993 -312.237ZM545.565 -300.574L539.506 -301.743L538.551 -291.733L544.332 -290.492L545.565 -300.574ZM544.181 -289.255L538.432 -290.489L537.508 -280.781L542.985 -279.491L544.181 -289.255ZM542.834 -278.254L537.389 -279.535L536.492 -270.102L541.672 -268.78L542.834 -278.254ZM541.521 -267.543L536.373 -268.855L535.499 -259.683L540.396 -258.342L541.521 -267.543ZM540.243 -257.097L535.379 -258.43L534.528 -249.494L539.146 -248.146L540.243 -257.097ZM538.995 -246.899L534.41 -248.237L533.579 -239.527L537.927 -238.184L538.995 -246.899ZM537.774 -236.928L533.458 -238.261L532.649 -229.757L536.733 -228.428L537.774 -236.928ZM536.578 -227.173L532.529 -228.491L531.736 -220.178L535.562 -218.873L536.578 -227.173ZM535.409 -217.616L531.615 -218.91L530.84 -210.777L534.415 -209.504L535.409 -217.616ZM509.229 -3.78574L511.424 -21.7261C509.306 -18.7388 505.697 -16.9245 501.799 -17.2863L187.459 -46.3854C184.52 -46.6591 181.811 -48.1613 180.032 -50.5082C178.434 -52.614 177.691 -55.2326 177.942 -57.8752L203.036 -321.343L200.563 -322.258L166.595 -44.8123C166.286 -42.3098 166.957 -39.834 168.479 -37.8285L168.474 -37.8253C170.059 -35.7299 172.381 -34.4043 174.992 -34.0915L498.479 4.63812C503.764 5.26767 508.581 1.49268 509.229 -3.78574ZM200.72 -323.529L203.158 -322.625L203.483 -326.036L201.13 -326.876L200.72 -323.529ZM201.284 -328.134L203.604 -327.307L203.926 -330.679L201.689 -331.441L201.284 -328.134ZM201.842 -332.698L204.046 -331.946L204.363 -335.269L202.241 -335.96L201.842 -332.698ZM202.396 -337.22L204.483 -336.541L204.796 -339.819L202.789 -340.439L202.396 -337.22ZM202.944 -341.689L204.917 -341.079L205.224 -344.309L203.332 -344.861L202.944 -341.689ZM203.483 -346.108L205.345 -345.567L205.645 -348.732L203.865 -349.219L203.483 -346.108ZM204.018 -350.469L205.765 -349.991L206.062 -353.101L204.393 -353.528L204.018 -350.469ZM204.544 -354.77L206.181 -354.351L206.47 -357.403L205.249 -357.69C205.138 -357.715 205.024 -357.741 204.911 -357.764L204.544 -354.77ZM205.535 -358.891L206.589 -358.643L206.871 -361.596C206.378 -361.668 205.886 -361.707 205.395 -361.713L205.062 -358.994C205.22 -358.963 205.377 -358.929 205.535 -358.891ZM205.546 -362.95C206.026 -362.939 206.508 -362.899 206.988 -362.829L207.234 -365.42C206.758 -365.39 206.289 -365.327 205.826 -365.235L205.546 -362.95ZM205.983 -366.521C206.434 -366.596 206.891 -366.645 207.353 -366.667L207.551 -368.733C207.083 -368.592 206.63 -368.418 206.191 -368.215C206.19 -368.199 206.188 -368.184 206.186 -368.17L205.983 -366.521ZM206.495 -369.682C206.88 -369.828 207.274 -369.952 207.677 -370.054L207.801 -371.356C207.59 -371.223 207.387 -371.081 207.186 -370.932C207.067 -370.844 206.948 -370.752 206.835 -370.658C206.704 -370.342 206.591 -370.016 206.495 -369.682ZM549.656 -323.781C551.247 -323.114 552.641 -322.039 553.713 -320.627C555.338 -318.48 556.023 -315.83 555.626 -313.16L555.453 -311.993C555.056 -312.104 554.653 -312.196 554.241 -312.266L548.369 -313.262L549.656 -323.781ZM548.217 -312.029L554.031 -311.043C554.452 -310.971 554.865 -310.876 555.27 -310.754L553.716 -300.269L546.937 -301.574L548.217 -312.029ZM546.786 -300.339L553.535 -299.039L552.024 -288.842L545.549 -290.232L546.786 -300.339ZM545.396 -288.994L551.843 -287.612L550.382 -277.751L544.199 -279.205L545.396 -288.994ZM544.048 -277.968L550.199 -276.521L548.784 -266.967L542.884 -268.472L544.048 -277.968ZM542.733 -267.233L548.602 -265.736L547.23 -256.47L541.604 -258.011L542.733 -267.233ZM541.451 -256.767L547.047 -255.235L545.713 -246.23L540.352 -247.795L541.451 -256.767ZM540.2 -246.547L545.529 -244.992L544.233 -236.235L539.13 -237.812L540.2 -246.547ZM538.977 -236.556L544.048 -234.989L542.785 -226.459L537.934 -228.037L538.977 -236.556ZM537.779 -226.782L542.6 -225.213L541.368 -216.893L536.762 -218.464L537.779 -226.782ZM536.607 -217.208L541.183 -215.647L539.98 -207.522L535.613 -209.078L536.607 -217.208ZM535.458 -207.818L539.795 -206.273L538.619 -198.335L534.485 -199.868L535.458 -207.818ZM509.207 0.254639L506.377 19.3637C505.571 24.798 500.492 28.5763 495.05 27.7889L162.418 -20.5713C159.822 -20.9484 157.518 -22.3059 155.932 -24.3938L155.939 -24.3925C154.31 -26.5432 153.627 -29.1903 154.022 -31.8657L197.215 -323.499L199.369 -322.7L165.363 -44.9572C165.021 -42.1386 165.77 -39.338 167.49 -37.0767C169.285 -34.7149 171.898 -33.2186 174.844 -32.8646L498.334 5.86951C502.881 6.4129 507.128 4.05283 509.207 0.254639ZM199.524 -323.972L197.4 -324.759L197.886 -328.03L199.932 -327.302L199.524 -323.972ZM200.087 -328.561L198.071 -329.278L198.549 -332.511L200.49 -331.849L200.087 -328.561ZM200.644 -333.106L198.735 -333.759L199.206 -336.949L201.04 -336.352L200.644 -333.106ZM201.194 -337.611L199.391 -338.199L199.857 -341.345L201.586 -340.811L201.194 -337.611ZM201.739 -342.061L200.042 -342.586L200.5 -345.688L202.126 -345.213L201.739 -342.061ZM202.279 -346.461L200.684 -346.927L201.135 -349.967L202.656 -349.55L202.279 -346.461ZM202.809 -350.802L201.318 -351.21L201.752 -354.141C202.142 -354.081 202.529 -354.002 202.915 -353.903L203.181 -353.837L202.809 -350.802ZM203.334 -355.078L203.228 -355.105C202.798 -355.214 202.367 -355.301 201.933 -355.367L202.322 -357.991C202.775 -358.003 203.23 -357.987 203.685 -357.946L203.334 -355.078ZM203.834 -359.174C203.392 -359.215 202.948 -359.235 202.507 -359.229L202.833 -361.439C203.264 -361.536 203.699 -361.61 204.138 -361.655L203.834 -359.174ZM204.293 -362.914C203.868 -362.88 203.446 -362.824 203.027 -362.745L203.268 -364.372C203.678 -364.572 204.1 -364.744 204.535 -364.89L204.293 -362.914ZM204.699 -366.235C204.329 -366.131 203.962 -366.008 203.604 -365.87C203.701 -366.183 203.812 -366.49 203.938 -366.792C204.23 -367.033 204.534 -367.258 204.85 -367.467L204.699 -366.235ZM560.493 -307.13C559.429 -308.533 558.041 -309.621 556.46 -310.317L554.937 -300.033L561.081 -298.85C561.502 -298.769 561.917 -298.665 562.324 -298.541L562.432 -299.166C562.912 -301.968 562.205 -304.87 560.493 -307.13ZM560.84 -297.631L554.755 -298.803L553.241 -288.581L560.344 -287.058L562.11 -297.305C561.696 -297.438 561.272 -297.548 560.84 -297.631ZM560.132 -285.833L553.06 -287.351L551.594 -277.465L558.413 -275.861L560.132 -285.833ZM558.203 -274.638L551.413 -276.235L549.994 -266.658L556.539 -264.989L558.203 -274.638ZM556.329 -263.765L549.812 -265.428L548.437 -256.139L554.718 -254.419L556.329 -263.765ZM554.506 -253.192L548.253 -254.904L546.917 -245.879L552.943 -244.12L554.506 -253.192ZM552.731 -242.89L546.734 -244.64L545.434 -235.864L551.211 -234.079L552.731 -242.89ZM550.997 -232.842L545.251 -234.618L543.983 -226.069L549.519 -224.267L550.997 -232.842ZM549.307 -223.031L543.799 -224.823L542.564 -216.485L547.867 -214.677L549.307 -223.031ZM547.653 -213.44L542.381 -215.239L541.174 -207.097L546.249 -205.29L547.653 -213.44ZM546.035 -204.051L540.989 -205.848L539.811 -197.894L544.664 -196.096L546.035 -204.051ZM544.449 -194.85L539.626 -196.637L508.34 14.6135L544.449 -194.85ZM503.53 42.5174L507.168 21.4156C505.494 26.4962 500.344 29.8145 494.878 29.019L162.246 -19.341C159.324 -19.7654 156.736 -21.2924 154.95 -23.6405C153.117 -26.0563 152.349 -29.0371 152.796 -32.041L196.025 -323.941L194.146 -324.637L141.442 -18.9206C140.961 -16.1193 141.665 -13.2207 143.385 -10.9594L143.38 -10.9561C144.963 -8.87283 147.257 -7.48163 149.843 -7.04379L491.618 50.9424C497.221 51.8968 502.565 48.1153 503.53 42.5174ZM194.362 -325.885L196.212 -325.2L196.694 -328.454L194.914 -329.087L194.362 -325.885ZM195.128 -330.326L196.879 -329.704L197.354 -332.919L195.674 -333.493L195.128 -330.326ZM195.886 -334.73L197.539 -334.165L198.008 -337.337L196.426 -337.853L195.886 -334.73ZM196.64 -339.094L198.193 -338.587L198.657 -341.716L197.17 -342.176L196.64 -339.094ZM197.382 -343.408L198.841 -342.956L199.297 -346.038L198.245 -346.346C198.132 -346.378 198.019 -346.411 197.906 -346.439L197.382 -343.408ZM198.6 -347.534L199.481 -347.277L199.925 -350.28C199.486 -350.374 199.046 -350.444 198.603 -350.491L198.116 -347.666C198.278 -347.626 198.44 -347.581 198.6 -347.534ZM198.815 -351.719C199.247 -351.672 199.679 -351.604 200.108 -351.514L200.515 -354.261C200.092 -354.279 199.671 -354.274 199.251 -354.247L198.815 -351.719ZM199.466 -355.498C199.876 -355.516 200.286 -355.513 200.696 -355.491L201.051 -357.883C200.642 -357.823 200.236 -357.742 199.837 -357.64L199.466 -355.498ZM200.065 -358.963C200.454 -359.046 200.846 -359.109 201.239 -359.154L201.52 -361.049C201.117 -360.902 200.722 -360.731 200.335 -360.537L200.065 -358.963ZM200.711 -362.065C201.043 -362.202 201.381 -362.32 201.723 -362.425L201.894 -363.577C201.597 -363.374 201.311 -363.157 201.036 -362.926C200.916 -362.646 200.808 -362.36 200.711 -362.065ZM563.295 -296.842C564.854 -296.12 566.224 -295.025 567.279 -293.637C569.11 -291.226 569.824 -288.148 569.241 -285.177L569.221 -285.076C568.793 -285.218 568.357 -285.339 567.912 -285.434L561.561 -286.795L563.295 -296.842ZM561.351 -285.571L567.648 -284.22C568.103 -284.123 568.547 -283.997 568.98 -283.846L567.024 -273.834L559.627 -275.575L561.351 -285.571ZM559.416 -274.352L566.787 -272.617L564.881 -262.86L557.749 -264.68L559.416 -274.352ZM557.539 -263.457L564.643 -261.645L562.799 -252.206L555.922 -254.089L557.539 -263.457ZM555.712 -252.862L562.559 -250.986L560.772 -241.835L554.144 -243.77L555.712 -252.862ZM553.932 -242.54L560.533 -240.613L558.798 -231.735L552.409 -233.709L553.932 -242.54ZM552.197 -232.471L558.557 -230.506L556.87 -221.875L550.715 -223.878L552.197 -232.471ZM550.501 -222.643L556.631 -220.648L554.989 -212.247L549.057 -214.27L550.501 -222.643ZM548.845 -213.034L554.75 -211.02L553.15 -202.832L547.437 -204.867L548.845 -213.034ZM547.223 -203.628L552.909 -201.604L551.35 -193.619L545.849 -195.657L547.223 -203.628ZM545.634 -194.411L551.107 -192.383L500.68 65.6667C499.553 71.424 493.95 75.2053 488.192 74.0974L137.271 6.48068C134.7 5.98657 132.412 4.56494 130.829 2.48145L130.836 2.48291C129.01 0.0762939 128.292 -3.00555 128.87 -5.97391L191.346 -325.675L192.97 -325.072L140.225 -19.1218C139.683 -15.9859 140.477 -12.737 142.399 -10.2031C144.171 -7.86514 146.746 -6.30905 149.64 -5.81906L491.415 52.1671C497.686 53.231 503.671 48.9923 504.751 42.7231L545.634 -194.411ZM193.186 -326.32L191.587 -326.912L192.202 -330.055L193.734 -329.508L193.186 -326.32ZM193.948 -330.747L192.441 -331.283L193.049 -334.388L194.491 -333.896L193.948 -330.747ZM194.705 -335.133L193.288 -335.615L193.887 -338.679L195.239 -338.238L194.705 -335.133ZM195.453 -339.479L194.128 -339.91L194.707 -342.874C195.113 -342.791 195.516 -342.687 195.917 -342.563L195.982 -342.543L195.453 -339.479ZM196.194 -343.775C195.78 -343.899 195.363 -344.005 194.944 -344.091L195.478 -346.822C195.883 -346.799 196.291 -346.756 196.697 -346.693L196.194 -343.775ZM196.908 -347.916C196.51 -347.979 196.115 -348.023 195.719 -348.05L196.196 -350.494C196.584 -350.534 196.972 -350.553 197.363 -350.553L196.908 -347.916ZM197.577 -351.796C197.199 -351.801 196.82 -351.791 196.444 -351.764L196.848 -353.831C197.219 -353.938 197.595 -354.024 197.972 -354.09L197.577 -351.796ZM198.195 -355.38C197.83 -355.327 197.469 -355.259 197.111 -355.176L197.409 -356.707C197.769 -356.894 198.138 -357.063 198.51 -357.208L198.195 -355.38ZM198.753 -358.611C198.438 -358.508 198.129 -358.393 197.821 -358.266C197.918 -358.544 198.026 -358.819 198.145 -359.086C198.4 -359.301 198.664 -359.506 198.94 -359.699L198.753 -358.611ZM574.073 -280.142C573.028 -281.516 571.681 -282.613 570.151 -283.359L568.234 -273.55L574.744 -272.018C575.218 -271.907 575.682 -271.768 576.137 -271.603C576.668 -274.611 575.923 -277.699 574.073 -280.142ZM574.461 -270.812L567.995 -272.333L566.086 -262.555L573.755 -260.598L575.88 -270.378C575.42 -270.553 574.945 -270.698 574.461 -270.812ZM573.492 -259.388L565.846 -261.337L563.998 -251.877L571.417 -249.845L573.492 -259.388ZM571.154 -248.632L563.761 -250.657L561.968 -241.486L569.146 -239.391L571.154 -248.632ZM568.882 -238.176L561.729 -240.264L559.99 -231.367L566.936 -229.22L568.882 -238.176ZM566.67 -227.999L559.749 -230.137L558.059 -221.488L564.78 -219.301L566.67 -227.999ZM564.516 -218.082L557.82 -220.261L556.174 -211.843L562.678 -209.625L564.516 -218.082ZM562.414 -208.406L555.935 -210.616L554.331 -202.412L560.625 -200.171L562.414 -208.406ZM560.358 -198.951L554.09 -201.183L552.528 -193.183L558.616 -190.927L560.358 -198.951ZM558.348 -189.7L552.287 -191.947L501.892 65.9105C500.639 72.3405 494.383 76.5614 487.955 75.3198L137.034 7.70303C134.163 7.15048 131.606 5.56219 129.843 3.23792C127.8 0.548279 127.006 -2.89316 127.651 -6.20691L190.17 -326.11L188.778 -326.626L116.29 6.97141C115.61 10.1099 116.334 13.3736 118.271 15.93C119.854 18.0133 122.134 19.4611 124.695 20.0084L484.761 97.2556C490.677 98.5259 496.545 94.7414 497.828 88.8237L558.348 -189.7ZM189.044 -327.854L190.411 -327.349L191.022 -330.474L189.715 -330.939L189.044 -327.854ZM189.981 -332.16L191.263 -331.704L191.866 -334.791L191.258 -334.998C191.053 -335.068 190.846 -335.133 190.639 -335.194L189.981 -332.16ZM191.655 -336.172L192.107 -336.019L192.695 -339.033C192.308 -339.13 191.918 -339.209 191.526 -339.27L190.904 -336.408C191.155 -336.336 191.405 -336.258 191.655 -336.172ZM191.79 -340.489C192.173 -340.426 192.554 -340.349 192.934 -340.256L193.482 -343.064C193.11 -343.106 192.738 -343.127 192.366 -343.134L191.79 -340.489ZM192.634 -344.368C192.997 -344.355 193.36 -344.328 193.721 -344.285L194.219 -346.83C193.86 -346.813 193.502 -346.781 193.148 -346.734L192.634 -344.368ZM193.425 -348.015C193.77 -348.049 194.115 -348.07 194.462 -348.079L194.896 -350.293C194.549 -350.219 194.203 -350.129 193.862 -350.023L193.425 -348.015ZM194.16 -351.395C194.489 -351.478 194.82 -351.55 195.153 -351.605L195.494 -353.355C195.151 -353.211 194.813 -353.049 194.48 -352.869L194.16 -351.395ZM194.924 -354.455C195.205 -354.576 195.487 -354.687 195.773 -354.786L195.976 -355.818C195.723 -355.635 195.478 -355.444 195.244 -355.243C195.128 -354.986 195.021 -354.723 194.924 -354.455ZM577.034 -269.864C578.529 -269.096 579.845 -268.001 580.868 -266.654C582.729 -264.204 583.5 -261.143 583.047 -258.135C582.569 -258.318 582.078 -258.475 581.576 -258.602L574.954 -260.291L577.034 -269.864ZM574.691 -259.083L581.267 -257.405C581.792 -257.27 582.303 -257.103 582.796 -256.903L580.521 -247.352L572.613 -249.517L574.691 -259.083ZM572.35 -248.305L580.235 -246.146L578.011 -236.804L570.338 -239.044L572.35 -248.305ZM570.074 -237.829L577.723 -235.596L575.571 -226.553L568.123 -228.853L570.074 -237.829ZM567.858 -227.632L575.281 -225.338L573.192 -216.564L565.963 -218.916L567.858 -227.632ZM565.699 -217.697L572.904 -215.353L570.874 -206.829L563.858 -209.223L565.699 -217.697ZM563.593 -208.004L570.586 -205.618L568.612 -197.326L561.801 -199.752L563.593 -208.004ZM561.534 -198.532L568.324 -196.114L566.402 -188.042L559.788 -190.493L561.534 -198.532ZM559.521 -189.266L566.112 -186.824L494.98 111.978C494.277 114.92 492.475 117.417 489.895 119.012C487.318 120.604 484.276 121.102 481.329 120.409L112.12 33.5359C109.568 32.9352 107.289 31.4603 105.714 29.3784L105.706 29.377C103.651 26.6693 102.926 23.2207 103.71 19.9165L186.419 -327.498C186.477 -327.478 186.534 -327.456 186.592 -327.435L187.606 -327.059L115.079 6.71228C114.319 10.2057 115.123 13.8336 117.282 16.6819C119.039 18.9973 121.58 20.61 124.432 21.2221L484.495 98.4648C491.082 99.8765 497.607 95.6691 499.039 89.0827L559.521 -189.266ZM187.872 -328.289L187.027 -328.602C186.921 -328.641 186.815 -328.679 186.709 -328.717L187.41 -331.668C187.789 -331.578 188.165 -331.473 188.537 -331.353L187.872 -328.289ZM188.802 -332.569C188.437 -332.684 188.068 -332.784 187.698 -332.872L188.358 -335.643C188.717 -335.604 189.077 -335.55 189.435 -335.482L188.802 -332.569ZM189.699 -336.693C189.348 -336.762 188.998 -336.816 188.647 -336.859L189.258 -339.427C189.602 -339.432 189.945 -339.427 190.289 -339.405L189.699 -336.693ZM190.555 -340.633C190.222 -340.658 189.888 -340.671 189.555 -340.671L190.102 -342.973C190.429 -343.026 190.76 -343.066 191.089 -343.095L190.555 -340.633ZM191.364 -344.355C191.046 -344.337 190.728 -344.309 190.411 -344.269L190.873 -346.209C191.186 -346.313 191.504 -346.405 191.826 -346.484L191.364 -344.355ZM192.116 -347.817C191.808 -347.756 191.504 -347.684 191.204 -347.601L191.546 -349.034C191.853 -349.205 192.164 -349.361 192.482 -349.503L192.116 -347.817ZM192.801 -350.972C192.54 -350.877 192.283 -350.771 192.026 -350.658C192.119 -350.906 192.222 -351.15 192.331 -351.391C192.551 -351.58 192.777 -351.762 193.011 -351.934L192.801 -350.972ZM587.663 -253.167C586.644 -254.51 585.381 -255.59 583.934 -256.369L581.709 -247.026L588.411 -245.19C588.94 -245.045 589.452 -244.87 589.95 -244.666C590.332 -247.676 589.531 -250.708 587.663 -253.167ZM588.08 -243.997L581.422 -245.82L579.194 -236.459L587.32 -234.087L589.67 -243.201C589.688 -243.274 589.706 -243.346 589.724 -243.418C589.195 -243.648 588.647 -243.841 588.08 -243.997ZM587.01 -232.886L578.906 -235.251L576.75 -226.188L584.655 -223.746L587.01 -232.886ZM584.342 -222.538L576.461 -224.974L574.368 -216.182L582.058 -213.679L584.342 -222.538ZM581.749 -212.475L574.08 -214.971L572.046 -206.43L579.532 -203.877L581.749 -212.475ZM579.221 -202.673L571.759 -205.219L569.781 -196.91L577.067 -194.315L579.221 -202.673ZM576.756 -193.111L569.491 -195.698L567.567 -187.611L574.661 -184.982L576.756 -193.111ZM574.348 -183.773L567.276 -186.393L496.187 112.26C495.408 115.526 493.405 118.298 490.544 120.066C487.678 121.833 484.305 122.38 481.039 121.614L111.83 34.741C109 34.0739 106.475 32.4367 104.722 30.1257C102.441 27.1218 101.634 23.2968 102.508 19.6315L185.229 -327.866C184.887 -327.956 184.544 -328.032 184.198 -328.097L91.1377 32.863C90.244 36.3362 90.9715 39.9698 93.1448 42.8284L93.1523 42.8299C94.7494 44.9435 96.9674 46.4071 99.5443 47.0636L477.9 143.568C480.924 144.332 484.067 143.886 486.754 142.291C489.44 140.694 491.352 138.153 492.132 135.131L574.348 -183.773ZM184.511 -329.305C184.848 -329.24 185.184 -329.165 185.517 -329.078L186.189 -331.896C185.862 -331.943 185.535 -331.977 185.205 -332L184.511 -329.305ZM185.52 -333.218C185.838 -333.191 186.158 -333.153 186.477 -333.106L187.099 -335.719C186.784 -335.724 186.471 -335.717 186.16 -335.699L185.52 -333.218ZM186.484 -336.956C186.786 -336.965 187.088 -336.963 187.392 -336.954L187.96 -339.337C187.658 -339.301 187.36 -339.254 187.061 -339.196L186.484 -336.956ZM187.401 -340.513C187.687 -340.556 187.975 -340.59 188.264 -340.617L188.755 -342.678C188.464 -342.597 188.174 -342.505 187.888 -342.403L187.401 -340.513ZM188.253 -343.821C188.527 -343.9 188.802 -343.972 189.079 -344.035L189.46 -345.643C189.17 -345.504 188.886 -345.357 188.608 -345.197L188.253 -343.821ZM189.124 -346.848C189.352 -346.952 189.584 -347.051 189.818 -347.142L190.032 -348.041C189.821 -347.88 189.618 -347.712 189.42 -347.54C189.314 -347.313 189.215 -347.083 189.124 -346.848ZM590.857 -242.853C592.252 -242.062 593.473 -240.996 594.464 -239.69C596.337 -237.222 597.168 -234.209 596.85 -231.199C596.332 -231.422 595.794 -231.615 595.244 -231.775L588.508 -233.741L590.857 -242.853ZM588.199 -232.539L594.897 -230.584C595.501 -230.408 596.086 -230.188 596.648 -229.929C596.596 -229.69 596.539 -229.451 596.472 -229.213L594.147 -220.812L585.838 -223.38L588.199 -232.539ZM585.525 -222.173L593.816 -219.611L591.339 -210.659L583.238 -213.296L585.525 -222.173ZM582.927 -212.092L591.008 -209.462L588.607 -200.781L580.706 -203.476L582.927 -212.092ZM580.395 -202.272L588.276 -199.585L585.944 -191.154L578.237 -193.899L580.395 -202.272ZM577.926 -192.695L585.611 -189.958L583.346 -181.764L575.826 -184.55L577.926 -192.695ZM575.515 -183.34L583.013 -180.562L489.273 158.287C487.502 164.69 480.858 168.466 474.456 166.715L86.9576 60.5854C84.3891 59.8832 82.1796 58.3936 80.5719 56.2741L80.5749 56.2787C78.2884 53.2657 77.5544 49.45 78.5619 45.8051L182.062 -328.325C182.366 -328.316 182.67 -328.296 182.974 -328.267L89.9489 32.5489C88.9557 36.3969 89.7673 40.4114 92.1644 43.5741C93.9413 45.9088 96.3823 47.5311 99.2365 48.2614L477.592 144.758C480.935 145.616 484.418 145.112 487.39 143.352C490.359 141.588 492.477 138.777 493.335 135.436L575.515 -183.34ZM183.289 -329.487C182.994 -329.519 182.699 -329.542 182.402 -329.557L183.073 -331.981C183.362 -332.006 183.654 -332.022 183.943 -332.029L183.289 -329.487ZM184.263 -333.27C183.983 -333.27 183.704 -333.261 183.423 -333.246L184.02 -335.406C184.297 -335.467 184.574 -335.519 184.855 -335.562L184.263 -333.27ZM185.189 -336.861C184.921 -336.828 184.655 -336.789 184.391 -336.744L184.902 -338.587C185.168 -338.688 185.436 -338.777 185.705 -338.86L185.189 -336.861ZM186.063 -340.247C185.808 -340.182 185.554 -340.112 185.301 -340.033L185.671 -341.37C185.838 -341.469 186.009 -341.563 186.182 -341.655C186.275 -341.703 186.369 -341.752 186.462 -341.798L186.063 -340.247ZM186.858 -343.334C186.646 -343.246 186.434 -343.152 186.225 -343.055C186.311 -343.269 186.405 -343.48 186.504 -343.686C186.689 -343.852 186.878 -344.01 187.072 -344.163L186.858 -343.334ZM601.271 -226.204C600.308 -227.474 599.13 -228.527 597.788 -229.327C597.752 -229.178 597.715 -229.03 597.673 -228.882L595.339 -220.444L602.072 -218.364C602.649 -218.185 603.208 -217.971 603.751 -217.724C603.987 -220.729 603.12 -223.767 601.271 -226.204ZM601.706 -217.173L595.007 -219.243L592.525 -210.273L601.018 -207.51L603.289 -215.215C603.406 -215.617 603.503 -216.022 603.58 -216.429C602.98 -216.724 602.354 -216.972 601.706 -217.173ZM600.667 -206.319L592.194 -209.076L589.789 -200.378L598.083 -197.549L600.667 -206.319ZM597.733 -196.359L589.458 -199.182L587.12 -190.735L595.226 -187.849L597.733 -196.359ZM594.875 -186.659L586.789 -189.539L584.518 -181.33L592.441 -178.395L594.875 -186.659ZM592.088 -177.2L584.186 -180.128L490.471 158.614C488.514 165.672 481.185 169.844 474.126 167.909L86.6269 61.7792C83.7885 61.0044 81.3549 59.3639 79.5825 57.026C77.0614 53.7034 76.2537 49.4931 77.3653 45.4699L180.771 -328.305C180.511 -328.289 180.25 -328.266 179.991 -328.235L65.9879 58.7396C64.8808 62.5002 65.6366 66.6068 68.0054 69.7288C69.6133 71.8483 71.8216 73.3652 74.382 74.113L471.031 189.869C474.201 190.799 477.558 190.43 480.468 188.841C483.373 187.253 485.493 184.628 486.428 181.445L592.088 -177.2ZM180.37 -329.523C180.62 -329.544 180.87 -329.558 181.12 -329.567L181.737 -331.797C181.489 -331.75 181.241 -331.698 180.992 -331.637L180.37 -329.523ZM181.392 -332.991C181.627 -333.036 181.865 -333.077 182.102 -333.112L182.631 -335.023C182.388 -334.942 182.149 -334.856 181.913 -334.76L181.392 -332.991ZM182.348 -336.235C182.571 -336.309 182.794 -336.375 183.021 -336.438L183.434 -337.931C183.195 -337.807 182.96 -337.673 182.731 -337.537L182.348 -336.235ZM183.323 -339.258C183.504 -339.344 183.686 -339.427 183.869 -339.506L184.083 -340.277C183.918 -340.144 183.758 -340.007 183.6 -339.867C183.503 -339.668 183.409 -339.464 183.323 -339.258ZM604.713 -215.798C606.004 -214.991 607.14 -213.953 608.077 -212.719C609.935 -210.275 610.823 -207.258 610.647 -204.25C610.084 -204.517 609.501 -204.75 608.899 -204.945L602.194 -207.127L604.474 -214.866C604.565 -215.175 604.645 -215.486 604.713 -215.798ZM601.843 -205.936L608.52 -203.764C609.206 -203.54 609.87 -203.263 610.503 -202.936C610.408 -202.356 610.273 -201.78 610.095 -201.211L607.908 -194.198L599.256 -197.149L601.843 -205.936ZM598.905 -195.96L607.54 -193.014L604.86 -184.418L596.393 -187.433L598.905 -195.96ZM596.042 -186.244L604.492 -183.235L601.89 -174.893L593.602 -177.964L596.042 -186.244ZM593.25 -176.77L601.521 -173.706L483.575 204.61C482.557 207.863 480.334 210.533 477.319 212.123C474.298 213.718 470.84 214.036 467.584 213.033L61.7972 87.6469C59.2408 86.8566 57.0365 85.3167 55.4257 83.1927L55.427 83.1851C52.9371 79.9073 52.1853 75.605 53.4093 71.6771L177.962 -327.845C178.185 -327.904 178.409 -327.958 178.634 -328.008L64.797 58.3938C63.5752 62.5264 64.4095 67.0443 67.0131 70.4762C68.7824 72.8096 71.2074 74.4759 74.0254 75.298L470.67 191.051C474.167 192.074 477.857 191.667 481.056 189.918C484.258 188.165 486.59 185.279 487.613 181.781L593.25 -176.77ZM179.03 -329.352C178.817 -329.314 178.605 -329.273 178.393 -329.228L178.933 -330.959C179.146 -331.047 179.361 -331.132 179.577 -331.209L179.03 -329.352ZM180.002 -332.649C179.8 -332.59 179.6 -332.525 179.4 -332.457L179.786 -333.694C179.993 -333.822 180.203 -333.944 180.417 -334.059L180.002 -332.649ZM180.894 -335.678C180.732 -335.606 180.572 -335.53 180.413 -335.453C180.494 -335.642 180.581 -335.827 180.671 -336.01C180.811 -336.138 180.955 -336.262 181.102 -336.382L180.894 -335.678ZM614.89 -199.244C613.981 -200.443 612.884 -201.462 611.643 -202.272C611.548 -201.796 611.427 -201.323 611.28 -200.854L609.081 -193.798L615.73 -191.53C616.358 -191.317 616.964 -191.064 617.55 -190.774C617.672 -193.785 616.755 -196.786 614.89 -199.244ZM615.333 -190.356L608.712 -192.614L606.027 -184.003L614.822 -180.871L616.906 -187.221C617.145 -187.952 617.318 -188.694 617.426 -189.441C616.76 -189.802 616.061 -190.109 615.333 -190.356ZM614.435 -179.694L605.659 -182.819L603.053 -174.463L611.672 -171.27L614.435 -179.694ZM611.283 -170.088L602.683 -173.275L484.763 204.97C483.652 208.541 481.214 211.467 477.9 213.211C474.588 214.96 470.794 215.313 467.221 214.209L61.4344 88.8229C58.6293 87.952 56.2085 86.2628 54.4421 83.9339C51.7144 80.3418 50.8887 75.6251 52.2333 71.3143L176.527 -327.376C176.335 -327.302 176.144 -327.223 175.954 -327.14L40.8294 84.6224C39.4885 88.7178 40.2407 93.2128 42.8442 96.6447L42.8518 96.6462C44.4703 98.7714 46.6704 100.334 49.2231 101.167L464.155 236.184C471.035 238.422 478.47 234.643 480.728 227.763L611.283 -170.088ZM176.457 -328.672C176.633 -328.735 176.81 -328.796 176.987 -328.852L177.412 -330.215C177.223 -330.107 177.037 -329.997 176.854 -329.882L176.457 -328.672ZM177.787 -331.801C177.833 -331.822 177.88 -331.844 177.927 -331.865L178.12 -332.484C177.995 -332.378 177.872 -332.27 177.751 -332.16C177.671 -331.999 177.593 -331.835 177.519 -331.671C177.608 -331.714 177.697 -331.758 177.787 -331.801ZM618.562 -188.75C619.76 -187.939 620.819 -186.935 621.703 -185.769C623.579 -183.3 624.519 -180.311 624.446 -177.297C623.84 -177.61 623.212 -177.883 622.563 -178.114L615.984 -180.457L618.078 -186.843C618.285 -187.472 618.445 -188.109 618.562 -188.75ZM615.597 -179.28L622.146 -176.948C622.912 -176.675 623.645 -176.339 624.343 -175.943C624.228 -175.029 624.018 -174.12 623.71 -173.229L621.754 -167.534L612.828 -170.841L615.597 -179.28ZM612.441 -169.66L621.349 -166.359L477.88 250.918C476.706 254.331 474.273 257.082 471.033 258.673C467.793 260.266 464.128 260.498 460.715 259.335L36.6398 114.693C34.094 113.823 31.8934 112.24 30.2686 110.106C27.5441 106.519 26.7885 101.826 28.2538 97.5645L173.91 -326.05C174.07 -326.153 174.232 -326.254 174.396 -326.349L39.6606 84.2412C38.1901 88.7258 39.0149 93.6428 41.8669 97.3949C43.6377 99.7206 46.0424 101.434 48.8404 102.343L463.772 237.36C471.302 239.807 479.444 235.677 481.911 228.148L612.441 -169.66ZM174.953 -328.044L175.138 -328.611C175.037 -328.523 174.938 -328.435 174.84 -328.343C174.762 -328.19 174.686 -328.035 174.613 -327.877C174.726 -327.935 174.839 -327.991 174.953 -328.044ZM628.513 -172.298C627.655 -173.426 626.634 -174.408 625.489 -175.217C625.355 -174.414 625.154 -173.616 624.884 -172.831L622.915 -167.104L629.398 -164.702C630.068 -164.453 630.716 -164.16 631.34 -163.826C631.365 -166.84 630.399 -169.818 628.513 -172.298ZM628.959 -163.54L622.511 -165.929L479.038 251.32C477.756 255.041 475.104 258.049 471.563 259.784C468.024 261.523 464.024 261.78 460.296 260.509L36.2222 115.867C33.4429 114.918 31.038 113.184 29.2717 110.856C26.2971 106.936 25.4732 101.819 27.0771 97.162L172.132 -324.704C172.06 -324.641 171.989 -324.576 171.919 -324.511C171.637 -323.965 171.39 -323.395 171.178 -322.807L15.6796 110.5C14.0885 114.934 14.8369 119.818 17.6857 123.565L17.6888 123.57C19.309 125.707 21.513 127.314 24.0563 128.219L457.277 282.493C464.475 285.057 472.435 281.279 475.025 274.078L630.516 -159.236C630.896 -160.288 631.142 -161.365 631.259 -162.447C630.531 -162.876 629.763 -163.242 628.959 -163.54ZM632.411 -161.688C632.266 -160.72 632.025 -159.759 631.687 -158.816L476.19 274.5C473.374 282.345 464.696 286.46 456.853 283.665L23.6312 129.393C20.8588 128.406 18.4626 126.645 16.6918 124.32C13.5974 120.237 12.7791 114.916 14.5119 110.09L169.287 -321.212C168.888 -320.521 168.544 -319.791 168.26 -319.029L3.11163 123.443C1.39291 128.039 2.14039 133.122 5.10581 137.029L5.10133 137.031C6.72465 139.175 8.92749 140.807 11.4685 141.75L453.832 305.647C457.401 306.967 461.271 306.822 464.734 305.234C468.202 303.642 470.84 300.805 472.173 297.234L637.327 -145.235C639.039 -149.833 638.295 -154.912 635.326 -158.823C634.494 -159.921 633.512 -160.884 632.411 -161.688Z" fill="white" fill-opacity="0.06"/>
</g>
<defs>
<clipPath id="clip0_68_4932">
<rect width="285.903" height="384.8" fill="white" transform="translate(0.0141602 -76.1011)"/>
</clipPath>
</defs>
</svg>
