<svg width="25" height="24" viewBox="0 0 25 24" fill="none" xmlns="http://www.w3.org/2000/svg">
<g clip-path="url(#clip0_128_3423)">
<g clip-path="url(#clip1_128_3423)">
<path d="M6.45795 2.31812C6.29432 2.31791 6.13226 2.34998 5.98105 2.41249C5.82984 2.47502 5.69244 2.56676 5.57674 2.68246C5.46104 2.79815 5.3693 2.93555 5.30678 3.08676C5.24427 3.23798 5.21219 3.40004 5.2124 3.56366V20.4262C5.21219 20.5898 5.24427 20.7518 5.30678 20.9031C5.3693 21.0543 5.46104 21.1917 5.57674 21.3074C5.69244 21.4231 5.82984 21.5148 5.98105 21.5773C6.13226 21.6398 6.29432 21.6719 6.45795 21.6717H18.7124C18.8761 21.6719 19.0382 21.6398 19.1894 21.5773C19.3406 21.5148 19.4779 21.4231 19.5936 21.3074C19.7094 21.1917 19.8011 21.0543 19.8637 20.9031C19.9262 20.7518 19.9582 20.5898 19.958 20.4262V3.56366C19.9582 3.40004 19.9262 3.23798 19.8637 3.08676C19.8011 2.93555 19.7094 2.79815 19.5936 2.68246C19.4779 2.56676 19.3406 2.47502 19.1894 2.41249C19.0382 2.34998 18.8761 2.31791 18.7124 2.31812H6.45795ZM10.4685 4.62212C10.4828 4.62144 10.4972 4.62144 10.5116 4.62212H14.6588C14.781 4.62212 14.8983 4.67066 14.9847 4.75708C15.0711 4.8435 15.1196 4.96071 15.1196 5.08292C15.1196 5.20513 15.0711 5.32234 14.9847 5.40875C14.8983 5.49517 14.781 5.54372 14.6588 5.54372H10.5116C10.4511 5.54657 10.3906 5.53746 10.3336 5.51693C10.2766 5.4964 10.2242 5.46484 10.1794 5.42407C10.1346 5.38329 10.0983 5.33409 10.0725 5.27927C10.0467 5.22445 10.032 5.16509 10.0291 5.10457C10.0263 5.04407 10.0354 4.98359 10.0559 4.92659C10.0765 4.8696 10.108 4.8172 10.1488 4.77239C10.1896 4.7276 10.2388 4.69127 10.2936 4.66548C10.3484 4.63969 10.408 4.62497 10.4685 4.62212ZM12.5852 8.76932C14.2395 8.76932 15.5804 10.1102 15.5804 11.7645C15.5804 12.9089 14.8984 13.8213 14.198 14.2989C16.0412 14.9901 17.1932 16.8527 17.1932 18.9069H7.9772C7.9772 16.8527 9.1292 14.9901 10.9724 14.2989C10.272 13.8213 9.59 12.9089 9.59 11.7645C9.59 10.1102 10.931 8.76932 12.5852 8.76932Z" fill="white"/>
</g>
</g>
<defs>
<clipPath id="clip0_128_3423">
<rect width="24" height="23.03" fill="white" transform="translate(0.585449 0.480011)"/>
</clipPath>
<clipPath id="clip1_128_3423">
<rect width="24" height="23.03" fill="white" transform="translate(0.585449 0.480011)"/>
</clipPath>
</defs>
</svg>
