<svg width="32" height="64" viewBox="0 0 32 64" fill="none" xmlns="http://www.w3.org/2000/svg">
<path d="M14.0254 16.6982C15.171 16.0369 16.5654 15.9956 17.7422 16.5742L17.9746 16.6982L27.8311 22.3887C29.0532 23.0943 29.8066 24.3984 29.8066 25.8096V37.1904C29.8066 38.5136 29.1447 39.7429 28.0547 40.4727L27.8311 40.6113L17.9746 46.3018C16.829 46.9631 15.4346 47.0044 14.2578 46.4258L14.0254 46.3018L4.16895 40.6113C2.94681 39.9057 2.19336 38.6016 2.19336 37.1904V25.8096C2.19336 24.4864 2.85535 23.2571 3.94531 22.5273L4.16895 22.3887L14.0254 16.6982Z" fill="url(#paint0_linear_57_207)" stroke="url(#paint1_linear_57_207)" stroke-width="0.1"/>
<g filter="url(#filter0_d_57_207)">
<path d="M16.2012 24.5002C15.6394 24.5004 15.1006 24.7233 14.7033 25.12C14.306 25.5167 14.0827 26.0547 14.0826 26.6157V27.5767H13.1201C12.8417 27.5764 12.566 27.631 12.3087 27.7373C12.0514 27.8436 11.8176 27.9995 11.6208 28.1961C11.4239 28.3927 11.2678 28.6261 11.1613 28.883C11.0549 29.1399 11.0003 29.4152 11.0005 29.6932V31.8079H14.0821V33.7299H13.1196C12.5576 33.7298 12.0186 33.9526 11.6211 34.3493C11.2236 34.746 11.0002 35.2841 11 35.8453V39.5H13.1206C13.3988 39.4999 13.6742 39.4451 13.9311 39.3386C14.188 39.2322 14.4215 39.0763 14.618 38.8798C14.8146 38.6833 14.9705 38.45 15.0768 38.1933C15.1831 37.9366 15.2377 37.6616 15.2375 37.3839H15.2402V35.9877L15.2346 35.9884V27.0931L15.2392 27.0942V26.616C15.2397 26.3611 15.3412 26.1167 15.5215 25.9361C15.7018 25.7556 15.9464 25.6536 16.2017 25.6525H19.8824V26.616C19.8816 26.8709 19.7797 27.1151 19.5992 27.2951C19.4186 27.4752 19.1739 27.5766 18.9187 27.577H15.6748V28.7305H18.9182C19.48 28.7305 20.0189 28.5077 20.4162 28.111C20.8135 27.7144 21.0367 27.1764 21.0368 26.6154V24.5L16.2012 24.5002ZM14.0826 30.6543H12.1569V29.6933C12.1573 29.4381 12.2589 29.1933 12.4395 29.0126C12.6201 28.832 12.865 28.73 13.1206 28.729H14.0831L14.0826 30.6543ZM14.0826 37.385C14.0822 37.6398 13.9806 37.8841 13.8003 38.0644C13.6199 38.2447 13.3753 38.3463 13.1201 38.3469H12.1564V35.8459C12.1567 35.5909 12.2583 35.3464 12.439 35.1662C12.6197 34.986 12.8647 34.8848 13.1201 34.8849H14.0826V37.385ZM15.6748 31.8078H18.1056V32.7697C18.1047 33.0245 18.0028 33.2686 17.8223 33.4487C17.6417 33.6287 17.3971 33.7301 17.1419 33.7307H15.6748V34.8849H17.1424C17.4207 34.8851 17.6963 34.8305 17.9534 34.7242C18.2105 34.6179 18.4441 34.4621 18.6409 34.2657C18.8376 34.0692 18.9937 33.8359 19.1001 33.5792C19.2065 33.3225 19.2612 33.0473 19.2611 32.7695H19.2621V30.6541H15.6748V31.8078Z" fill="url(#paint2_linear_57_207)"/>
</g>
<path d="M14.2998 18.5967C15.286 18.0273 16.487 17.992 17.5 18.4902L17.7002 18.5967L26.3242 23.5762C27.3761 24.1835 28.0243 25.3059 28.0244 26.5205V36.4795C28.0243 37.6182 27.4545 38.6756 26.5166 39.3037L26.3242 39.4238L17.7002 44.4033C16.714 44.9727 15.513 45.008 14.5 44.5098L14.2998 44.4033L5.67578 39.4238C4.62388 38.8165 3.97566 37.6941 3.97559 36.4795V26.5205C3.97566 25.3818 4.54545 24.3245 5.4834 23.6963L5.67578 23.5762L14.2998 18.5967Z" stroke="url(#paint3_linear_57_207)" stroke-width="0.2"/>
<defs>
<filter id="filter0_d_57_207" x="5.84375" y="20.2812" width="23.1619" height="28.125" filterUnits="userSpaceOnUse" color-interpolation-filters="sRGB">
<feFlood flood-opacity="0" result="BackgroundImageFix"/>
<feColorMatrix in="SourceAlpha" type="matrix" values="0 0 0 0 0 0 0 0 0 0 0 0 0 0 0 0 0 0 127 0" result="hardAlpha"/>
<feOffset dx="1.40625" dy="2.34375"/>
<feGaussianBlur stdDeviation="3.28125"/>
<feComposite in2="hardAlpha" operator="out"/>
<feColorMatrix type="matrix" values="0 0 0 0 0.882148 0 0 0 0 0.410738 0 0 0 0 1 0 0 0 1 0"/>
<feBlend mode="normal" in2="BackgroundImageFix" result="effect1_dropShadow_57_207"/>
<feBlend mode="normal" in="SourceGraphic" in2="effect1_dropShadow_57_207" result="shape"/>
</filter>
<linearGradient id="paint0_linear_57_207" x1="8" y1="11" x2="21.5" y2="50.5" gradientUnits="userSpaceOnUse">
<stop stop-color="#CC84FF"/>
<stop offset="0.565774" stop-color="#6C3AC0"/>
</linearGradient>
<linearGradient id="paint1_linear_57_207" x1="16" y1="15.5" x2="16" y2="47.5" gradientUnits="userSpaceOnUse">
<stop stop-color="#CD9DF2"/>
<stop offset="1" stop-color="#562296"/>
</linearGradient>
<linearGradient id="paint2_linear_57_207" x1="16" y1="31.5" x2="16.0184" y2="39.5" gradientUnits="userSpaceOnUse">
<stop stop-color="white"/>
<stop offset="1" stop-color="#A962E6"/>
</linearGradient>
<linearGradient id="paint3_linear_57_207" x1="9.5" y1="22" x2="16" y2="45.5" gradientUnits="userSpaceOnUse">
<stop stop-color="#FBD4FF"/>
<stop offset="1" stop-color="#D15BFF"/>
</linearGradient>
</defs>
</svg>
