<svg width="25" height="24" viewBox="0 0 25 24" fill="none" xmlns="http://www.w3.org/2000/svg">
<g clip-path="url(#clip0_128_3412)">
<g clip-path="url(#clip1_128_3412)">
<g clip-path="url(#clip2_128_3412)">
<mask id="mask0_128_3412" style="mask-type:luminance" maskUnits="userSpaceOnUse" x="1" y="0" width="24" height="24">
<path d="M24.4655 0.475006H1.42554V23.515H24.4655V0.475006Z" fill="white"/>
</mask>
<g mask="url(#mask0_128_3412)">
<path d="M24.1613 12.7387C24.1481 12.6085 24.1034 12.4834 24.0307 12.3744C23.9581 12.2655 23.8598 12.176 23.7446 12.1138C23.6273 12.0448 23.4958 12.0038 23.3601 11.9936C23.4178 11.861 23.466 11.7245 23.5044 11.585C23.763 10.7194 23.7827 9.7999 23.5612 8.92401C23.3398 8.04811 22.8854 7.24844 22.2465 6.60976C22.1508 6.51083 22.0312 6.43822 21.8993 6.39893C21.7674 6.35964 21.6276 6.35499 21.4933 6.38543C21.3632 6.40914 21.241 6.46472 21.1375 6.5472C21.034 6.62968 20.9526 6.7365 20.9005 6.85813C20.8604 6.94625 20.8204 7.04239 20.7723 7.13053C20.0246 5.69783 18.8974 4.49832 17.5139 3.66314C16.1304 2.82797 14.5439 2.38929 12.9278 2.39508C11.3118 2.40086 9.72846 2.8509 8.35097 3.69596C6.97348 4.54103 5.85488 5.7486 5.11747 7.1866C5.06941 7.09847 5.02934 7.00234 4.98929 6.91421C4.93762 6.7935 4.85708 6.68734 4.75475 6.60507C4.65242 6.52281 4.53143 6.46695 4.40245 6.44242C4.27346 6.41789 4.14041 6.42543 4.01503 6.46439C3.88964 6.50335 3.77576 6.57254 3.68339 6.66585C3.04439 7.30453 2.5901 8.1042 2.36866 8.98009C2.14721 9.85599 2.16687 10.7754 2.42555 11.6411C2.46391 11.7806 2.51209 11.9171 2.56976 12.0497C2.43055 12.0499 2.29334 12.0829 2.16918 12.1458C2.05396 12.208 1.95573 12.2975 1.88311 12.4065C1.81048 12.5154 1.76566 12.6405 1.75257 12.7708C1.66216 13.6694 1.8153 14.5757 2.19591 15.3948C2.57653 16.2137 3.17057 16.9152 3.91573 17.4255L4.13204 17.5216V17.6018C4.30903 18.4878 4.72169 19.3096 5.32658 19.9808C5.93146 20.652 6.70616 21.1476 7.56905 21.4154C8.02868 21.5553 8.50668 21.6255 8.98713 21.6236C9.95118 21.61 10.8931 21.3329 11.7111 20.8225H14.1146C14.9326 21.3329 15.8746 21.61 16.8386 21.6236C17.3191 21.6255 17.7971 21.5553 18.2566 21.4154C19.1315 21.1574 19.9195 20.6662 20.5363 19.9943C21.1531 19.3225 21.5753 18.4954 21.7577 17.6018C21.7577 17.6018 21.7577 17.5618 21.7577 17.5377L21.9821 17.4095C22.7327 16.8999 23.3316 16.1966 23.7152 15.3743C24.0988 14.5521 24.253 13.6414 24.1613 12.7387ZM21.7577 8.78895C22.0838 9.52615 22.1378 10.3551 21.91 11.1283C21.6324 11.9921 21.0287 12.7136 20.2275 13.1392C20.1208 12.7311 20.1044 12.3046 20.1795 11.8894C20.293 11.4398 20.4855 11.0139 20.7483 10.6316C20.8845 10.4073 21.0367 10.151 21.205 9.83046C21.3732 9.50999 21.6056 9.15748 21.7577 8.78895ZM6.03882 9.02128C6.49728 7.55482 7.41219 6.27314 8.65016 5.36312C9.88812 4.45309 11.3844 3.9623 12.9208 3.9623C14.4573 3.9623 15.9536 4.45309 17.1916 5.36312C18.4295 6.27314 19.3445 7.55482 19.8029 9.02128V9.06935L19.3703 9.87052C19.0091 10.3997 18.7508 10.9922 18.6091 11.6171C18.4676 12.4002 18.5339 13.2069 18.8014 13.9565C18.5901 14.0685 18.3914 14.2028 18.2086 14.3571C17.4378 15.0243 16.8991 15.9193 16.6703 16.9128C16.6585 16.9817 16.6585 17.0522 16.6703 17.1211C16.3125 17.1646 15.9621 17.2562 15.6288 17.3935C14.7577 17.7738 14.0188 18.404 13.5058 19.2041H12.3841C11.8758 18.3921 11.1365 17.7504 10.261 17.3614C9.92797 17.2233 9.5775 17.1316 9.21947 17.0891C9.23127 17.0201 9.23127 16.9497 9.21947 16.8807C8.98263 15.8871 8.43542 14.9947 7.65718 14.333C7.4744 14.1787 7.27565 14.0444 7.06431 13.9325C7.33189 13.1829 7.39818 12.3762 7.2566 11.5931C7.10272 10.9653 6.83083 10.3726 6.45542 9.84648L6.0228 9.04531V8.99725L6.03882 9.02128ZM4.13204 8.78895C4.3083 9.14146 4.49256 9.49397 4.68485 9.83847C4.87713 10.183 5.00532 10.4073 5.14151 10.6397C5.40422 11.0219 5.59684 11.4478 5.71034 11.8975C5.78541 12.3126 5.76901 12.7391 5.66227 13.1473C4.86108 12.7215 4.25749 12.0001 3.97982 11.1364C3.75007 10.3606 3.80404 9.52848 4.13204 8.78895ZM3.45105 14.1567L4.54864 14.6294L5.39789 14.9499C5.84319 15.0814 6.26305 15.2873 6.6397 15.5588C6.95725 15.8383 7.21129 16.1825 7.38478 16.5683C6.49813 16.743 5.5783 16.5647 4.82104 16.0716C4.1527 15.615 3.66741 14.9367 3.45105 14.1567ZM8.05777 19.8611C7.28107 19.6142 6.61872 19.0967 6.19104 18.403C6.58361 18.4591 6.99221 18.4991 7.37678 18.5312L8.29011 18.5952C8.75079 18.5849 9.20953 18.6583 9.64408 18.8116C10.0315 18.9786 10.3764 19.2305 10.6536 19.5487C10.2633 19.7704 9.83276 19.9123 9.38708 19.9659C8.94141 20.0196 8.48952 19.9839 8.05777 19.8611ZM17.832 19.8611C17.4024 19.9887 16.9516 20.0297 16.506 19.9815C16.0603 19.9334 15.6287 19.7971 15.2363 19.5806C15.5134 19.2626 15.8583 19.0107 16.2457 18.8437C16.6803 18.6903 17.139 18.617 17.5997 18.6273L18.5531 18.5632C18.9457 18.5632 19.3543 18.4911 19.7388 18.435C19.2955 19.1244 18.6185 19.6307 17.832 19.8611ZM21.0367 16.0716C20.2794 16.5647 19.3596 16.743 18.473 16.5683C18.6464 16.1803 18.9036 15.8355 19.2261 15.5588C19.5986 15.2854 20.0162 15.0793 20.4599 14.9499L21.3091 14.6294L22.4067 14.1567C22.1986 14.9319 21.7251 15.6096 21.0687 16.0716H21.0367Z" fill="white"/>
<path d="M11.3423 13.5968C11.1298 13.5968 10.9261 13.6812 10.7757 13.8314C10.6255 13.9816 10.5411 14.1855 10.5411 14.3979C10.5411 14.6104 10.6255 14.8142 10.7757 14.9644C10.9261 15.1146 11.1298 15.1991 11.3423 15.1991H14.547C14.7594 15.1991 14.9633 15.1146 15.1135 14.9644C15.2637 14.8142 15.3481 14.6104 15.3481 14.3979C15.3481 14.1855 15.2637 13.9816 15.1135 13.8314C14.9633 13.6812 14.7594 13.5968 14.547 13.5968H13.7458V8.78973C13.745 8.63156 13.6974 8.47717 13.609 8.346C13.5207 8.21483 13.3954 8.11276 13.2491 8.05267C13.1032 7.99131 12.9424 7.97454 12.7869 8.00449C12.6315 8.03444 12.4885 8.10974 12.3758 8.22091L10.7734 9.82324C10.6226 9.97411 10.5378 10.1787 10.5378 10.3921C10.5378 10.6054 10.6226 10.81 10.7734 10.9609C10.9243 11.1117 11.1289 11.1965 11.3423 11.1965C11.5556 11.1965 11.7602 11.1117 11.9111 10.9609L12.1434 10.7205V13.5968H11.3423Z" fill="white"/>
</g>
</g>
</g>
</g>
<defs>
<clipPath id="clip0_128_3412">
<rect width="24" height="23.03" fill="white" transform="translate(0.945068 0.480011)"/>
</clipPath>
<clipPath id="clip1_128_3412">
<rect width="24" height="23.03" fill="white" transform="translate(0.945068 0.480011)"/>
</clipPath>
<clipPath id="clip2_128_3412">
<rect width="24" height="23.04" fill="white" transform="translate(0.945068 0.475006)"/>
</clipPath>
</defs>
</svg>
