<svg width="20" height="20" viewBox="0 0 20 20" fill="none" xmlns="http://www.w3.org/2000/svg">
<circle cx="10" cy="10" r="10" fill="black"/>
<g clip-path="url(#clip0_65_4688)">
<path d="M14.9485 12.66L13.2977 14.4039C13.2618 14.4418 13.2184 14.472 13.1702 14.4926C13.1219 14.5133 13.0699 14.5239 13.0173 14.5239H5.19165C5.15431 14.5239 5.11778 14.5131 5.08655 14.493C5.05533 14.4728 5.03077 14.4441 5.01588 14.4103C5.001 14.3766 4.99644 14.3393 5.00278 14.3031C5.00911 14.2668 5.02605 14.2332 5.05153 14.2063L6.70357 12.4625C6.73937 12.4247 6.78264 12.3945 6.83073 12.3739C6.87883 12.3533 6.93071 12.3426 6.98318 12.3425H14.8084C14.8457 12.3425 14.8822 12.3532 14.9135 12.3734C14.9447 12.3936 14.9692 12.4223 14.9842 12.456C14.999 12.4897 15.0036 12.527 14.9972 12.5633C14.9909 12.5995 14.974 12.6331 14.9485 12.66ZM13.2977 9.14839C13.2618 9.11051 13.2184 9.0803 13.1702 9.05966C13.1219 9.03903 13.0699 9.02839 13.0173 9.02842H5.19165C5.15431 9.02842 5.11778 9.03916 5.08655 9.05933C5.05533 9.0795 5.03077 9.10821 5.01588 9.14194C5.001 9.17568 4.99644 9.21296 5.00278 9.24921C5.00911 9.28545 5.02605 9.31908 5.05153 9.34598L6.70357 11.0898C6.73937 11.1276 6.78264 11.1578 6.83073 11.1784C6.87883 11.199 6.93071 11.2097 6.98318 11.2098H14.8084C14.8457 11.2098 14.8822 11.1991 14.9135 11.1789C14.9447 11.1587 14.9692 11.13 14.9842 11.0963C14.999 11.0626 15.0036 11.0253 14.9972 10.989C14.9909 10.9528 14.974 10.9192 14.9485 10.8923L13.2977 9.14839ZM5.19165 7.89576H13.0173C13.0699 7.89578 13.1219 7.88515 13.1702 7.86451C13.2184 7.84387 13.2618 7.81366 13.2977 7.77578L14.9485 6.03192C14.974 6.00503 14.9909 5.97139 14.9972 5.93514C15.0036 5.8989 14.999 5.86162 14.9842 5.82789C14.9692 5.79415 14.9447 5.76544 14.9135 5.74527C14.8822 5.7251 14.8457 5.71436 14.8084 5.71436H6.98318C6.93071 5.71444 6.87883 5.72514 6.83073 5.74577C6.78264 5.76641 6.73937 5.79655 6.70357 5.83433L5.05195 7.5782C5.0265 7.60506 5.00957 7.63867 5.00322 7.67486C4.99687 7.71107 5.00139 7.74832 5.01622 7.78204C5.03105 7.81576 5.05555 7.84447 5.08671 7.86467C5.11787 7.88487 5.15434 7.89567 5.19165 7.89576Z" fill="url(#paint0_linear_65_4688)"/>
</g>
<defs>
<linearGradient id="paint0_linear_65_4688" x1="5.84412" y1="14.7338" x2="13.912" y2="5.50047" gradientUnits="userSpaceOnUse">
<stop offset="0.08" stop-color="#9945FF"/>
<stop offset="0.3" stop-color="#8752F3"/>
<stop offset="0.5" stop-color="#5497D5"/>
<stop offset="0.6" stop-color="#43B4CA"/>
<stop offset="0.72" stop-color="#28E0B9"/>
<stop offset="0.97" stop-color="#19FB9B"/>
</linearGradient>
<clipPath id="clip0_65_4688">
<rect width="10" height="8.80952" fill="white" transform="translate(5 5.71436)"/>
</clipPath>
</defs>
</svg>
