<svg width="80" height="80" viewBox="0 0 80 80" fill="none" xmlns="http://www.w3.org/2000/svg">
<path d="M59.4211 4H20.5789C11.4226 4 4 11.4226 4 20.5789V59.4211C4 68.5774 11.4226 76 20.5789 76H59.4211C68.5774 76 76 68.5774 76 59.4211V20.5789C76 11.4226 68.5774 4 59.4211 4Z" fill="#1D1233"/>
<g clip-path="url(#clip0_99_1265)">
<path d="M40 18C27.8692 18 18 27.8692 18 40C18 52.1308 27.8692 62 40 62C52.1308 62 62 52.1308 62 40C62 27.8692 52.1308 18 40 18ZM35.6022 49.7086L27.4336 41.5576L30.54 38.4424L35.5978 43.4914L47.2446 31.8446L50.3554 34.9554L35.6022 49.7086Z" fill="#B094FF"/>
</g>
<defs>
<clipPath id="clip0_99_1265">
<rect width="44" height="44" fill="white" transform="translate(18 18)"/>
</clipPath>
</defs>
</svg>
