<svg width="32" height="32" viewBox="0 0 32 32" fill="none" xmlns="http://www.w3.org/2000/svg">
<rect x="0.571429" y="0.571429" width="30.8571" height="30.8571" rx="15.4286" stroke="#E8F9FF" stroke-opacity="0.5" stroke-width="1.14286"/>
<path d="M10.7973 19.7305L14.8463 15.6815L10.7973 11.6326C10.6422 11.48 10.5545 11.2714 10.5535 11.054C10.553 10.8361 10.6392 10.6275 10.7933 10.4734C10.9473 10.3198 11.156 10.2336 11.3739 10.2346C11.5917 10.2356 11.7999 10.3234 11.9524 10.479L15.9999 14.528L20.0488 10.479C20.2014 10.3234 20.4096 10.2356 20.6274 10.2346C20.8448 10.2336 21.0539 10.3198 21.208 10.4734C21.3621 10.6275 21.4483 10.8361 21.4473 11.054C21.4468 11.2714 21.359 11.48 21.2039 11.6326L17.1534 15.6815L21.2024 19.7305C21.3575 19.8831 21.4453 20.0918 21.4462 20.3091C21.4468 20.527 21.3605 20.7357 21.2064 20.8897C21.0524 21.0433 20.8437 21.1295 20.6259 21.1285C20.408 21.1275 20.1998 21.0397 20.0472 20.8841L15.9999 16.8351L11.9509 20.8841C11.6315 21.1989 11.1182 21.1968 10.8009 20.8806C10.484 20.5637 10.4815 20.0505 10.7958 19.7305H10.7973Z" fill="#E8F9FF" fill-opacity="0.7"/>
</svg>
